<?xml version="1.0" standalone="no"?>
<!DOCTYPE svg PUBLIC "-//W3C//DTD SVG 1.1//EN" "http://www.w3.org/Graphics/SVG/1.1/DTD/svg11.dtd" >
<svg xmlns="http://www.w3.org/2000/svg">
<metadata>
This is a custom SVG webfont generated by Font Squirrel.
Designer    : httpwwwunderwarenl
Foundry URL : httpwwwunderwarenl
</metadata>
<defs>
<font id="Auto1LightSmCp" horiz-adv-x="1063" >
<font-face units-per-em="2048" ascent="1577" descent="-471" />
<missing-glyph horiz-adv-x="444" />
<glyph unicode=" "  horiz-adv-x="444" />
<glyph unicode="&#x09;" horiz-adv-x="444" />
<glyph unicode="&#xa0;" horiz-adv-x="444" />
<glyph unicode="!" horiz-adv-x="780" d="M309 0v140h162v-140h-162zM338 1112h108l-8 -774h-94z" />
<glyph unicode="&#x22;" horiz-adv-x="897" d="M203 872v438h96v-434zM594 872v438h96v-434z" />
<glyph unicode="#" d="M102 492l6 82h191l73 262h-186l6 86h206l69 256h96l-71 -256h206l70 256h96l-72 -256h174l-4 -86h-192l-72 -262h184l-6 -82h-202l-70 -252h-94l70 252h-208l-69 -252h-96l71 252h-176zM398 574h204l72 262h-205z" />
<glyph unicode="$" d="M178 86l33 86q37 -21 76 -38t78 -29t75 -18.5t68 -6.5q60 0 104 14t73 37t43 54t14 65q0 36 -9 64t-35 53t-75 49.5t-127 54.5q-82 31 -136 60t-85 63t-43.5 76t-12.5 96q0 47 16 90.5t48.5 79.5t81 62t114.5 36l-4 276h103l-2 -268q86 0 151 -17t109 -50l-35 -88 q-20 10 -47.5 21.5t-59.5 20t-68 14t-73 5.5q-62 0 -106 -13t-72.5 -37t-41.5 -56.5t-13 -71.5q0 -38 9.5 -66t35.5 -51t72 -44t118 -48q62 -22 107.5 -44t77.5 -44.5t53 -45.5t32.5 -48t16 -53t4.5 -60q0 -44 -15.5 -87t-48 -80t-84.5 -63q-50 -26 -122 -38l2 -254l-103 -2 l4 250q-52 0 -95.5 8t-80.5 21t-67.5 30t-57.5 35z" />
<glyph unicode="%" d="M70 0l798 1032h109l-799 -1032h-108zM80 922q0 53 14 102.5t42 88.5t70.5 62t98.5 23t94.5 -18t63.5 -51t36 -81t11 -108q0 -66 -18 -119t-48.5 -89t-70 -55t-82.5 -19q-54 0 -94 17.5t-66 51t-38.5 83t-12.5 112.5zM166 926q0 -50 8.5 -85.5t25 -58t41 -32.5t56.5 -10 q26 0 48.5 10t39 34t26 61t9.5 91q0 48 -8 82t-24 56t-39.5 32t-53.5 10q-60 0 -94.5 -47t-34.5 -143zM565 119q0 53 14.5 103t42.5 89t70 63t98 24t95 -18.5t63.5 -52t36 -82t11.5 -108.5q0 -66 -18 -118.5t-49 -89.5t-70.5 -56t-82.5 -19q-54 0 -94 18t-66 52t-38.5 83 t-12.5 112zM654 123q0 -50 8 -85.5t24 -57.5t40 -33t56 -11q27 0 50 11t39.5 34t26.5 61t10 91q0 48 -9 82t-25 56t-40 32.5t-54 10.5q-60 0 -93 -47t-33 -144z" />
<glyph unicode="&#x26;" horiz-adv-x="1612" d="M170 270q0 43 14 88.5t48 93.5t89 98q55 52 138 104q-28 44 -47.5 83t-31.5 73.5t-17 66t-5 61.5q0 33 8.5 66.5t25.5 64.5t42.5 58t60.5 47t80 31t99 11q26 0 54 -3t54 -9t48 -14t36 -16l-28 -82q-45 17 -92 26q-46 8 -88 8q-40 0 -70 -8t-52 -22.5t-36 -33t-23 -39 t-12.5 -41t-3.5 -38.5q0 -34 6.5 -67t20.5 -68.5t36 -74.5q24 -40 54 -87l298 -457q46 38 84 87t66.5 108t45 127t18.5 144h-281l10 84h697l-8 -84h-334q0 -78 -18 -152.5t-50.5 -142.5t-79 -127.5t-104.5 -108.5l114 -160q14 -19 27 -32t26 -21.5t26 -12t28 -3.5 q18 0 38.5 4t42 10.5t43.5 15.5q21 8 43 18l32 -73q-20 -13 -46.5 -25t-56 -22t-60.5 -15t-61 -5q-22 0 -43 3t-41 14t-41 31t-43 52l-116 166q-42 -22 -79.5 -37t-76 -24.5t-80.5 -14t-92 -4.5q-79 0 -141.5 20t-105.5 56t-66 88t-23 116zM270 286q0 -42 14 -81t44 -69 t79 -48t117 -18q78 0 143 18t123 49l-292 447q-68 -46 -112 -86t-70 -76t-36 -69.5t-10 -66.5z" />
<glyph unicode="'" horiz-adv-x="502" d="M203 872v438h96v-434z" />
<glyph unicode="(" horiz-adv-x="710" d="M174 524q0 150 10.5 271t29.5 216t45.5 167.5t58.5 126t68 90t75.5 60.5t80 37.5t80.5 21.5l19 -68q-33 -14 -66 -32t-64.5 -44t-61 -61.5t-55 -85t-46.5 -114.5t-36 -150t-23.5 -193t-8.5 -242t8.5 -242t23.5 -193t36.5 -150t46.5 -114t55 -84t61.5 -60t65 -42.5 t66.5 -31.5l-21 -72q-40 8 -80.5 21.5t-80 37.5t-75.5 60t-68 90t-58.5 126t-45.5 167.5t-29.5 216t-10.5 270.5z" />
<glyph unicode=")" horiz-adv-x="708" d="M68 -393q33 14 65.5 31.5t64.5 42.5t61 60t55 84t47 114t36 150t23 193t8 242t-8 242t-23 193t-36 150t-47 114.5t-55 85t-61 61.5t-65 44t-65 32l18 68q40 -8 81 -21.5t80.5 -37.5t76 -60.5t68.5 -90t58 -126t45 -167.5t29 -216t10 -271t-10 -270.5t-29 -216t-45 -167.5 t-58 -126t-68.5 -90t-76 -60t-80.5 -38t-81 -21z" />
<glyph unicode="*" d="M84 1038l41 88l309 -149l45 350l95 -10l-46 -351l340 66l16 -90l-344 -60l185 -312l-82 -44l-176 316l-248 -260l-69 61l254 256z" />
<glyph unicode="+" d="M152 461l8 90h313v340h103v-340h338l-6 -90h-332v-328h-103v328h-321z" />
<glyph unicode="," horiz-adv-x="534" d="M41 -254q61 26 102.5 49t67 45t36.5 44t11 46q0 20 -4 47t-11 57.5t-16.5 62t-19.5 61.5l86 14q16 -18 30.5 -42t25.5 -51t17 -56t6 -58q0 -54 -20 -94.5t-57.5 -74t-92.5 -61.5q-56 -29 -126 -57z" />
<glyph unicode="-" horiz-adv-x="696" d="M72 473l6 82h544l-4 -82h-546z" />
<glyph unicode="." horiz-adv-x="520" d="M178 0v140h162v-140h-162z" />
<glyph unicode="/" horiz-adv-x="717" d="M72 0l466 1032h107l-469 -1032h-104z" />
<glyph unicode="0" d="M112 500q0 124 30.5 225t87 172.5t137.5 110t182 38.5q106 0 182 -32t124.5 -96t71.5 -160t23 -224q0 -130 -31 -232.5t-88.5 -173t-137 -107.5t-175.5 -37q-98 0 -174 29t-127 92t-78 161t-27 234zM215 510q0 -120 20.5 -204t59.5 -137t97 -76t132 -23q70 0 129 27 t102 83t67 142q24 84 24 202q0 104 -17 185.5t-54 138t-95 85.5t-142 29q-75 0 -134.5 -29t-101.5 -86t-64.5 -141t-22.5 -196z" />
<glyph unicode="1" d="M203 0l4 80l344 10v846h-344l-2 82l449 20v-948l204 -10l-4 -80h-651z" />
<glyph unicode="2" d="M137 66l399 336q72 62 117 108t70 85.5t34 74t9 72.5q0 48 -15.5 86t-46 64.5t-75.5 41t-105 14.5q-38 0 -75.5 -7t-76 -23.5t-77.5 -43t-80 -63.5l-59 71q36 36 78 66t90.5 51.5t104 33t118.5 11.5q85 0 147 -21t103 -58t60 -89t19 -112q0 -56 -14 -105t-46.5 -99 t-84 -102t-125.5 -114l-307 -260h588l-11 -84h-728z" />
<glyph unicode="3" d="M135 112l51 74q70 -51 152.5 -79.5t169.5 -28.5q63 0 116 15t91.5 42t59.5 64t21 79q0 56 -23 95t-70 64t-120 36t-171 11l-6 90q40 0 79 -2t72 -4t60 -5.5t43 -7.5q33 37 55 67.5t35.5 58t19.5 53.5t6 54q0 32 -13 61.5t-40 52.5t-69 36.5t-101 13.5q-40 0 -78.5 -7 t-77 -23.5t-77 -43t-78.5 -63.5l-64 67q44 43 88.5 74t92.5 50.5t101 28.5q54 9 114 9q86 0 145 -21t95 -55t52 -77t16 -88q0 -34 -6.5 -65.5t-23 -64t-43.5 -68.5q-27 -37 -67 -81q39 -14 69.5 -37t52 -53t33 -65.5t11.5 -75.5q0 -70 -32 -126.5t-87.5 -95.5t-132 -60 t-164.5 -21q-114 0 -204.5 32t-152.5 90z" />
<glyph unicode="4" d="M137 324l521 710l110 -4v-692h190l-4 -84h-186v-264h-100v264h-512zM250 338h418v574z" />
<glyph unicode="5" d="M135 112l51 74q70 -51 152 -79.5t170 -28.5q67 0 120.5 17t90.5 45t57 66q20 36 20 78q0 70 -27 114t-83.5 69t-144 34t-209.5 9q-26 0 -53 -1t-45 -3v526h636l-10 -92h-538v-340h78q132 0 227 -16t157.5 -52t93 -93t30.5 -140q0 -68 -30 -125t-84 -98t-131 -63.5 t-171 -22.5q-114 0 -204.5 32t-152.5 90z" />
<glyph unicode="6" d="M148 432q0 146 29 260.5t87 194t146 120.5t204 41q47 0 91.5 -5t84 -15t73 -24t59.5 -33l-46 -82q-24 14 -56.5 27.5t-69 23.5t-74.5 16t-74 6q-76 0 -137 -24t-105 -74.5t-71.5 -129t-36.5 -187.5q30 16 70 28.5t85 21.5t91.5 13t89.5 4q76 0 137 -19t103 -55.5t65 -90 t23 -123.5q0 -46 -12.5 -89t-35.5 -81t-56.5 -69t-75.5 -54t-93 -35t-109 -12q-52 0 -101 10.5t-92 33t-78.5 58.5t-61 85.5t-39.5 114t-14 144.5zM246 456q0 -89 19 -160t56.5 -121t93.5 -76.5t130 -26.5q62 0 112 16.5t85 48t54 77.5t19 104q0 50 -17.5 89t-51.5 65.5 t-82 40t-109 13.5q-21 0 -47 -2t-54 -6t-57 -10t-56 -14t-51.5 -17.5t-43.5 -20.5z" />
<glyph unicode="7" d="M172 940l10 92h726l8 -68l-558 -964h-108l546 940h-624z" />
<glyph unicode="8" d="M150 268q0 39 15 76.5t43 74.5t69 72t93 68q-77 40 -116 94.5t-39 126.5q0 54 23 103t67.5 85.5t108.5 58t147 21.5q82 0 142.5 -17.5t101.5 -51t61.5 -81.5t20.5 -110q0 -35 -10 -70.5t-31.5 -71t-54.5 -71.5t-81 -73q60 -28 100 -53.5t64 -53t34 -60t10 -75.5 q0 -56 -28 -106t-80 -87.5t-125.5 -59t-164.5 -21.5q-98 0 -168 21t-115 58.5t-66 89t-21 113.5zM256 278q0 -49 18 -88t52.5 -66.5t85 -41.5t116.5 -14q59 0 110.5 13t88.5 36.5t58.5 57t21.5 75.5q0 36 -11.5 61.5t-36.5 47t-63.5 40.5t-91.5 41l-170 72q-42 -30 -75 -58 t-56 -56t-35 -58t-12 -62zM318 792q0 -30 8 -56t26 -49t47 -43t70 -38l157 -70q40 28 69.5 57t49 58.5t28.5 61t9 65.5q0 41 -15 75t-44 58.5t-73 37.5t-101 13q-53 0 -96 -13t-73 -35.5t-46 -54t-16 -67.5z" />
<glyph unicode="9" d="M140 64l44 82q24 -14 57 -28t69 -24t74.5 -16t74.5 -6q76 0 137 24t105.5 74.5t71.5 129t36 188.5q-30 -16 -70 -29t-84.5 -21.5t-91.5 -13t-90 -4.5q-76 0 -137 19t-103.5 55.5t-64.5 90t-22 123.5q0 46 12 89t35 81t56 69t75.5 54t93 35t108.5 12q52 0 101 -10.5 t92 -33t79 -58.5t61.5 -85.5t40 -114t14.5 -144.5q0 -146 -29 -260.5t-87 -193.5t-146 -120.5t-206 -41.5q-47 0 -91 5t-83.5 15t-72.5 25t-59 33zM246 717q0 -51 18 -90t51.5 -65.5t82 -40t108.5 -13.5q21 0 46.5 2t53.5 6t57 10t57 14t52 18t43 20q0 89 -19 160t-56.5 121 t-93 76.5t-128.5 26.5q-63 0 -113.5 -16.5t-85.5 -48t-54 -77t-19 -103.5z" />
<glyph unicode=":" horiz-adv-x="520" d="M178 133v137h162v-137h-162zM178 725v139h162v-139h-162z" />
<glyph unicode=";" horiz-adv-x="532" d="M41 -254q61 26 102.5 49t67 45t36.5 44t11 46q0 20 -4 47t-11 57.5t-16.5 62t-19.5 61.5l86 14q16 -18 30.5 -42t25.5 -51t17 -56t6 -58q0 -54 -20 -94.5t-57.5 -74t-92.5 -61.5q-56 -29 -126 -57zM178 725v139h162v-139h-162z" />
<glyph unicode="&#x3c;" d="M158 446l12 94l740 368l-13 -112l-617 -300l615 -308l-11 -102z" />
<glyph unicode="=" d="M190 305l10 88h674l-6 -88h-678zM190 612l10 88h674l-6 -88h-678z" />
<glyph unicode="&#x3e;" d="M156 82l10 108l616 304l-612 307l8 100l730 -361l-13 -94z" />
<glyph unicode="?" horiz-adv-x="1009" d="M266 977l12 88l35 3.5t25.5 2t18.5 0.5h15q86 0 152 -10.5t116 -29t83.5 -44.5t54 -56.5t30 -65.5t9.5 -73q0 -46 -13 -83.5t-41.5 -69t-72.5 -56.5q-42 -25 -104 -45q-43 -14 -72.5 -24t-47 -21t-25 -24t-7.5 -31q0 -30 6 -65t14 -70l-84 -17q-16 34 -26 73t-10 73 q0 24 4 43t13.5 34t26 28t41.5 25t60 25t82 29q44 14 74 31t47.5 36t25 42t7.5 51q0 52 -25 90t-71.5 63t-113.5 37.5t-151 12.5h-14q-7 0 -17 -0.5t-23.5 -0.5t-33.5 -1zM354 0v140h164v-140h-164z" />
<glyph unicode="@" horiz-adv-x="1829" d="M135 324q0 164 33 300t92 243t141 187t180 133t208.5 79t226.5 26q176 0 304 -43t211.5 -122.5t124 -191t40.5 -247.5q0 -88 -21 -174t-58 -163.5t-89 -143.5t-114 -114.5t-134 -75.5t-148 -27q-19 0 -31.5 4.5t-20 13t-10.5 21.5t-3 29q0 22 4 57q5 35 11 81 q-42 -42 -74.5 -74t-59 -54.5t-48 -37t-41.5 -23.5t-39.5 -12t-41.5 -3q-33 0 -64.5 14t-56.5 46.5t-40 85.5q-15 52 -15 130q0 129 26 236t73.5 183.5t116 118.5t153.5 42q30 0 63 -3t66.5 -8t67 -13t63.5 -17l-51 -533l-4.5 -54t-4 -58.5t-2.5 -52.5q-1 -23 -1 -35 q63 8 119.5 36t105.5 72t88 100t67 120t43 134t15 140q0 133 -40 232.5t-117 165.5t-189 99t-256 33q-114 0 -216 -27t-187 -79t-153.5 -127t-116 -170t-72.5 -210t-25 -247q0 -150 24 -266t79 -195.5t143 -120.5q88 -40 216 -40q88 0 181.5 15t183.5 40l14 -76 q-45 -17 -94.5 -29.5t-101 -21t-103.5 -12.5t-102 -4q-126 0 -226.5 38.5t-170 121.5t-106 213.5t-36.5 314.5zM698 266q0 -49 8 -84.5t21.5 -58.5t33 -34t44.5 -11q14 0 27.5 3t29 12t35 24t46 40t62 60t83.5 82l44 445q-37 9 -79 15.5t-82 6.5q-48 0 -87 -18t-69.5 -51 t-52.5 -78.5t-36 -101t-21 -119.5t-7 -132z" />
<glyph unicode="A" horiz-adv-x="1112" d="M80 0l444 1032h90l418 -1032h-110l-142 340h-452l-144 -340h-104zM360 420h390l-174 438q-6 14 -9 25.5t-5 21.5t-2.5 19.5t-0.5 19.5q0 -20 -4.5 -40.5t-16.5 -45.5z" />
<glyph unicode="B" horiz-adv-x="1083" d="M223 0v1032h301q86 0 146 -17t97 -49t54 -77t17 -101q0 -54 -24 -113t-76 -128q54 -14 93 -36t63.5 -51.5t36 -64.5t11.5 -77q0 -69 -22 -127.5t-70 -100.5t-123 -66t-180 -24h-324zM326 80h235q70 0 122 15t86.5 44.5t51.5 72t17 95.5q0 84 -58 126t-178 42h-276v-395z M326 559h323q43 63 63.5 114.5t20.5 100.5q0 40 -10.5 73t-37.5 56t-72 35t-113 12h-174v-391z" />
<glyph unicode="C" horiz-adv-x="1087" d="M135 506q0 118 29.5 216.5t88 170t144.5 111.5t199 40q90 0 169 -17t157 -52l-17 -305l-86 -4v246q-60 22 -117 33t-108 11q-92 0 -158 -28.5t-109 -85t-63 -139.5t-20 -191q0 -112 20 -193.5t62 -134.5t107 -78.5t153 -25.5q46 0 92 7t91.5 21t88 34t80.5 46l45 -69 q-80 -64 -179.5 -96.5t-221.5 -32.5q-118 0 -202 32t-139 96t-80.5 161t-25.5 227z" />
<glyph unicode="D" horiz-adv-x="1181" d="M223 0v1032h338q114 0 204 -25t152.5 -83.5t95.5 -154t33 -235.5q0 -70 -12 -137t-39 -126.5t-68 -109t-99 -85.5t-133 -56t-169 -20h-303zM328 82h198q109 0 187.5 34.5t128.5 96t74 145.5t24 182q0 94 -22 170.5t-69.5 130t-122.5 81.5t-181 28h-217v-868z" />
<glyph unicode="E" horiz-adv-x="1022" d="M223 0v1032h649l-10 -84h-534v-370h479v-82h-479v-412h534l10 -84h-649z" />
<glyph unicode="F" horiz-adv-x="971" d="M223 0v1032h639l-8 -84h-526v-387h477l-9 -86h-468v-475h-105z" />
<glyph unicode="G" horiz-adv-x="1138" d="M135 506q0 118 29.5 216.5t88 170t144.5 111.5t199 40q106 0 190 -20t148 -58l-37 -84q-30 13 -66 26.5t-75.5 24t-80.5 17t-81 6.5q-92 0 -158 -28.5t-109 -85t-63 -139.5t-20 -191q0 -112 20 -193.5t62 -134.5t106 -78q66 -26 154 -26q67 0 136.5 19t141.5 57v235h-274 l4 84h374v-365q-40 -23 -84 -44.5t-91.5 -38.5t-100 -27t-110.5 -10q-118 0 -202 32t-139 96t-80.5 161t-25.5 227z" />
<glyph unicode="H" horiz-adv-x="1294" d="M223 0v1032h103v-452h645v452h106v-1032h-106v498h-645v-498h-103z" />
<glyph unicode="I" horiz-adv-x="798" d="M154 0v72l192 8v872l-192 4v76h491v-74l-193 -6v-872l193 -4v-76h-491z" />
<glyph unicode="J" horiz-adv-x="682" d="M18 -174l23 82q16 -4 36.5 -9t43.5 -8t45.5 -5t40.5 -2q36 0 62.5 8t44.5 27t27 51t9 79v903l-202 4v76h426v-74l-118 -6v-886q0 -64 -16.5 -114t-49 -84.5t-80.5 -52.5t-112 -18q-24 0 -49 2.5t-48 6t-44.5 9t-38.5 11.5z" />
<glyph unicode="K" horiz-adv-x="1052" d="M223 0v1032h105v-518l526 518h125l-428 -428l451 -604h-130l-399 528l-145 -135v-393h-105z" />
<glyph unicode="L" horiz-adv-x="911" d="M223 0v1032h103v-950h483l10 -82h-596z" />
<glyph unicode="M" horiz-adv-x="1464" d="M160 0l72 1032h108l387 -882l373 882h131l73 -1032h-94l-70 938q0 -22 -10 -58t-28 -77l-338 -789l-76 -4l-350 772q-14 31 -20.5 61t-8.5 56l-57 -899h-92z" />
<glyph unicode="N" horiz-adv-x="1302" d="M223 0v1032h97l624 -806q22 -30 34 -51t16 -35v892h92v-1032h-92l-630 805q-23 28 -35.5 50.5t-14.5 37.5v-893h-91z" />
<glyph unicode="O" horiz-adv-x="1237" d="M135 500q0 124 35 225t99.5 172t155.5 109t203 38q71 0 133.5 -11t115.5 -36t94.5 -65t70.5 -98.5t44.5 -135.5t15.5 -176q0 -72 -14 -140t-41 -127t-68 -108t-96.5 -85t-124.5 -55t-152 -19q-114 0 -202 29t-148 91t-90.5 159t-30.5 233zM240 510q0 -104 20 -186 t65 -138t118 -85t177 -29q92 0 162 33.5t117.5 94t72 144.5t24.5 184q0 63 -8 119.5t-26 104.5t-46.5 86t-70 65t-97.5 41t-128 14q-92 0 -162 -33t-119 -92t-74 -141.5t-25 -181.5z" />
<glyph unicode="P" horiz-adv-x="997" d="M223 0v1032h315q86 0 148.5 -25t103 -68t59.5 -100.5t19 -123.5q0 -82 -25.5 -151.5t-74.5 -120.5t-120.5 -80t-163.5 -29q-21 0 -43 1t-42.5 2t-39.5 3.5t-33 5.5v-346h-103zM326 430q14 -2 33 -4t41 -4t44 -3t44 -1q74 0 126.5 23.5t86 63t48.5 91.5t15 110 q0 47 -13 91.5t-43 78.5t-76.5 54t-113.5 20h-192v-520z" />
<glyph unicode="Q" horiz-adv-x="1247" d="M135 500q0 124 35 225t99.5 172t155.5 109t203 38q71 0 133.5 -11t115.5 -36t94.5 -65t70.5 -98.5t44.5 -135.5t15.5 -176q0 -86 -20 -165t-58.5 -145t-96 -116t-133.5 -78q58 -73 106 -119t93.5 -72.5t91 -36t99.5 -9.5q30 0 60 3t63.5 10t70 18.5t78.5 29.5l27 -76 q-36 -18 -72.5 -31.5t-75.5 -23t-80 -15t-87 -5.5q-45 0 -85.5 5.5t-78.5 18.5t-75 34.5t-75.5 55t-79 79.5t-86.5 108l-40 -3q-20 -1 -42 -1q-114 0 -202 29t-148 91t-90.5 159t-30.5 233zM240 510q0 -104 20 -186t65 -138t118 -85t177 -29q92 0 162 33.5t117.5 94 t72 144.5t24.5 184q0 63 -8 119.5t-26 104.5t-46.5 86t-70 65t-97.5 41t-128 14q-92 0 -162 -33t-119 -92t-74 -141.5t-25 -181.5z" />
<glyph unicode="R" horiz-adv-x="1095" d="M223 0v1032h328q82 0 141.5 -18t99.5 -52t59 -80.5t19 -103.5q0 -44 -10 -88t-32.5 -88t-56.5 -90t-81 -94l304 -418h-126l-282 393h-260v-393h-103zM326 475h305q32 30 57 65.5t43 73t27.5 75t9.5 71.5q0 46 -14 82t-44 60.5t-77.5 37t-114.5 12.5h-192v-477z" />
<glyph unicode="S" horiz-adv-x="958" d="M135 70l39 92q32 -16 67 -30t72.5 -25t76 -17t77.5 -6q62 0 106.5 15t72.5 39t41 53.5t13 58.5q0 24 -3 44t-13 38.5t-27 35t-45 33.5t-66 34.5t-92 37.5q-56 20 -97 39.5t-72 40.5t-51.5 43t-33 48t-17.5 56t-5 66q0 54 23.5 104t68 88.5t109.5 61t147 22.5 q79 0 146.5 -16t121.5 -49l-32 -90q-71 30 -131.5 45.5t-118.5 15.5q-62 0 -105.5 -12t-72 -34t-41.5 -53t-13 -69q0 -25 3 -45.5t12 -39t25 -35t42 -32.5t63 -33t89 -36q62 -22 108 -44.5t78 -44.5t52.5 -45.5t32 -49t16 -52.5t4.5 -57q0 -32 -9.5 -65t-29 -63.5t-48 -57 t-66.5 -46.5t-84.5 -31t-102.5 -11q-54 0 -101.5 5t-87.5 15t-75 24.5t-66 33.5z" />
<glyph unicode="T" horiz-adv-x="979" d="M53 950l5 82h868l-8 -82h-373v-950h-103v950h-389z" />
<glyph unicode="U" horiz-adv-x="1233" d="M190 389v643h103v-630q0 -86 16.5 -148t55 -101.5t100 -58t151.5 -18.5q92 0 155 22t101 66t54 107.5t16 146.5v614h100v-618q0 -90 -24 -168t-76.5 -134t-134 -88t-195.5 -32q-120 0 -200.5 25t-130 74.5t-70.5 124t-21 173.5z" />
<glyph unicode="V" horiz-adv-x="1085" d="M66 1032h116l332 -850q11 -28 14.5 -48t3.5 -40q0 20 4 41t15 47l363 850h106l-452 -1032h-86z" />
<glyph unicode="W" horiz-adv-x="1579" d="M112 1032h105l225 -840q8 -28 10 -51t2 -43q0 20 3 43t12 47l266 801l109 9l268 -806q10 -28 11 -51t1 -43q0 20 4 43t10 47l222 844h104l-290 -1032h-103l-275 832q-4 14 -6 25.5t-2.5 21.5t-1 19.5t-0.5 19.5q0 -10 -0.5 -19t-2.5 -19t-5.5 -21t-7.5 -23l-282 -836h-90 z" />
<glyph unicode="X" horiz-adv-x="1032" d="M102 0l363 510l-355 522h122l296 -442l326 442h112l-376 -518l358 -514h-116l-308 438l-309 -438h-113z" />
<glyph unicode="Y" horiz-adv-x="991" d="M56 1032h116l316 -522l329 522h109l-392 -614v-418h-104v406z" />
<glyph unicode="Z" horiz-adv-x="1018" d="M133 62l619 886h-574l6 84h698l9 -64l-627 -884h584l-10 -84h-686z" />
<glyph unicode="[" horiz-adv-x="762" d="M182 -428v1900h453l-4 -90h-347v-1720h344l-6 -90h-440z" />
<glyph unicode="\" horiz-adv-x="723" d="M72 1032h112l465 -1032h-111z" />
<glyph unicode="]" horiz-adv-x="755" d="M125 -428l6 90h342v1720h-340l4 90h439v-1900h-451z" />
<glyph unicode="^" horiz-adv-x="739" d="M86 708l256 611l74 6l238 -617h-91l-161 422q-12 34 -18.5 57t-6.5 31l-205 -510h-86z" />
<glyph unicode="_" horiz-adv-x="698" d="M84 0l6 78h524l-6 -78h-524z" />
<glyph unicode="`" horiz-adv-x="518" d="M56 1506l104 24l242 -336l-78 -30z" />
<glyph unicode="a" horiz-adv-x="1112" d="M80 0l444 1032h90l418 -1032h-110l-142 340h-452l-144 -340h-104zM360 420h390l-174 438q-6 14 -9 25.5t-5 21.5t-2.5 19.5t-0.5 19.5q0 -20 -4.5 -40.5t-16.5 -45.5z" />
<glyph unicode="b" horiz-adv-x="1083" d="M223 0v1032h301q86 0 146 -17t97 -49t54 -77t17 -101q0 -54 -24 -113t-76 -128q54 -14 93 -36t63.5 -51.5t36 -64.5t11.5 -77q0 -69 -22 -127.5t-70 -100.5t-123 -66t-180 -24h-324zM326 80h235q70 0 122 15t86.5 44.5t51.5 72t17 95.5q0 84 -58 126t-178 42h-276v-395z M326 559h323q43 63 63.5 114.5t20.5 100.5q0 40 -10.5 73t-37.5 56t-72 35t-113 12h-174v-391z" />
<glyph unicode="c" horiz-adv-x="1087" d="M135 506q0 118 29.5 216.5t88 170t144.5 111.5t199 40q90 0 169 -17t157 -52l-17 -305l-86 -4v246q-60 22 -117 33t-108 11q-92 0 -158 -28.5t-109 -85t-63 -139.5t-20 -191q0 -112 20 -193.5t62 -134.5t107 -78.5t153 -25.5q46 0 92 7t91.5 21t88 34t80.5 46l45 -69 q-80 -64 -179.5 -96.5t-221.5 -32.5q-118 0 -202 32t-139 96t-80.5 161t-25.5 227z" />
<glyph unicode="d" horiz-adv-x="1181" d="M223 0v1032h338q114 0 204 -25t152.5 -83.5t95.5 -154t33 -235.5q0 -70 -12 -137t-39 -126.5t-68 -109t-99 -85.5t-133 -56t-169 -20h-303zM328 82h198q109 0 187.5 34.5t128.5 96t74 145.5t24 182q0 94 -22 170.5t-69.5 130t-122.5 81.5t-181 28h-217v-868z" />
<glyph unicode="e" horiz-adv-x="1022" d="M223 0v1032h649l-10 -84h-534v-370h479v-82h-479v-412h534l10 -84h-649z" />
<glyph unicode="f" horiz-adv-x="971" d="M223 0v1032h639l-8 -84h-526v-387h477l-9 -86h-468v-475h-105z" />
<glyph unicode="g" horiz-adv-x="1138" d="M135 506q0 118 29.5 216.5t88 170t144.5 111.5t199 40q106 0 190 -20t148 -58l-37 -84q-30 13 -66 26.5t-75.5 24t-80.5 17t-81 6.5q-92 0 -158 -28.5t-109 -85t-63 -139.5t-20 -191q0 -112 20 -193.5t62 -134.5t106 -78q66 -26 154 -26q67 0 136.5 19t141.5 57v235h-274 l4 84h374v-365q-40 -23 -84 -44.5t-91.5 -38.5t-100 -27t-110.5 -10q-118 0 -202 32t-139 96t-80.5 161t-25.5 227z" />
<glyph unicode="h" horiz-adv-x="1294" d="M223 0v1032h103v-452h645v452h106v-1032h-106v498h-645v-498h-103z" />
<glyph unicode="i" horiz-adv-x="798" d="M154 0v72l192 8v872l-192 4v76h491v-74l-193 -6v-872l193 -4v-76h-491z" />
<glyph unicode="j" horiz-adv-x="682" d="M18 -174l23 82q16 -4 36.5 -9t43.5 -8t45.5 -5t40.5 -2q36 0 62.5 8t44.5 27t27 51t9 79v903l-202 4v76h426v-74l-118 -6v-886q0 -64 -16.5 -114t-49 -84.5t-80.5 -52.5t-112 -18q-24 0 -49 2.5t-48 6t-44.5 9t-38.5 11.5z" />
<glyph unicode="k" horiz-adv-x="1052" d="M223 0v1032h105v-518l526 518h125l-428 -428l451 -604h-130l-399 528l-145 -135v-393h-105z" />
<glyph unicode="l" horiz-adv-x="911" d="M223 0v1032h103v-950h483l10 -82h-596z" />
<glyph unicode="m" horiz-adv-x="1566" d="M213 0l71 1032h109l387 -882l373 882h131l74 -1032h-94l-70 938q0 -22 -10 -58t-29 -77l-338 -789l-75 -4l-351 772q-14 31 -20.5 61t-8.5 56l-57 -899h-92z" />
<glyph unicode="n" horiz-adv-x="1302" d="M223 0v1032h97l624 -806q22 -30 34 -51t16 -35v892h92v-1032h-92l-630 805q-23 28 -35.5 50.5t-14.5 37.5v-893h-91z" />
<glyph unicode="o" horiz-adv-x="1237" d="M135 500q0 124 35 225t99.5 172t155.5 109t203 38q71 0 133.5 -11t115.5 -36t94.5 -65t70.5 -98.5t44.5 -135.5t15.5 -176q0 -72 -14 -140t-41 -127t-68 -108t-96.5 -85t-124.5 -55t-152 -19q-114 0 -202 29t-148 91t-90.5 159t-30.5 233zM240 510q0 -104 20 -186 t65 -138t118 -85t177 -29q92 0 162 33.5t117.5 94t72 144.5t24.5 184q0 63 -8 119.5t-26 104.5t-46.5 86t-70 65t-97.5 41t-128 14q-92 0 -162 -33t-119 -92t-74 -141.5t-25 -181.5z" />
<glyph unicode="p" horiz-adv-x="997" d="M223 0v1032h315q86 0 148.5 -25t103 -68t59.5 -100.5t19 -123.5q0 -82 -25.5 -151.5t-74.5 -120.5t-120.5 -80t-163.5 -29q-21 0 -43 1t-42.5 2t-39.5 3.5t-33 5.5v-346h-103zM326 430q14 -2 33 -4t41 -4t44 -3t44 -1q74 0 126.5 23.5t86 63t48.5 91.5t15 110 q0 47 -13 91.5t-43 78.5t-76.5 54t-113.5 20h-192v-520z" />
<glyph unicode="q" horiz-adv-x="1247" d="M135 500q0 124 35 225t99.5 172t155.5 109t203 38q71 0 133.5 -11t115.5 -36t94.5 -65t70.5 -98.5t44.5 -135.5t15.5 -176q0 -86 -20 -165t-58.5 -145t-96 -116t-133.5 -78q58 -73 106 -119t93.5 -72.5t91 -36t99.5 -9.5q30 0 60 3t63.5 10t70 18.5t78.5 29.5l27 -76 q-36 -18 -72.5 -31.5t-75.5 -23t-80 -15t-87 -5.5q-45 0 -85.5 5.5t-78.5 18.5t-75 34.5t-75.5 55t-79 79.5t-86.5 108l-40 -3q-20 -1 -42 -1q-114 0 -202 29t-148 91t-90.5 159t-30.5 233zM240 510q0 -104 20 -186t65 -138t118 -85t177 -29q92 0 162 33.5t117.5 94 t72 144.5t24.5 184q0 63 -8 119.5t-26 104.5t-46.5 86t-70 65t-97.5 41t-128 14q-92 0 -162 -33t-119 -92t-74 -141.5t-25 -181.5z" />
<glyph unicode="r" horiz-adv-x="1095" d="M223 0v1032h328q82 0 141.5 -18t99.5 -52t59 -80.5t19 -103.5q0 -44 -10 -88t-32.5 -88t-56.5 -90t-81 -94l304 -418h-126l-282 393h-260v-393h-103zM326 475h305q32 30 57 65.5t43 73t27.5 75t9.5 71.5q0 46 -14 82t-44 60.5t-77.5 37t-114.5 12.5h-192v-477z" />
<glyph unicode="s" horiz-adv-x="958" d="M135 70l39 92q32 -16 67 -30t72.5 -25t76 -17t77.5 -6q62 0 106.5 15t72.5 39t41 53.5t13 58.5q0 24 -3 44t-13 38.5t-27 35t-45 33.5t-66 34.5t-92 37.5q-56 20 -97 39.5t-72 40.5t-51.5 43t-33 48t-17.5 56t-5 66q0 54 23.5 104t68 88.5t109.5 61t147 22.5 q79 0 146.5 -16t121.5 -49l-32 -90q-71 30 -131.5 45.5t-118.5 15.5q-62 0 -105.5 -12t-72 -34t-41.5 -53t-13 -69q0 -25 3 -45.5t12 -39t25 -35t42 -32.5t63 -33t89 -36q62 -22 108 -44.5t78 -44.5t52.5 -45.5t32 -49t16 -52.5t4.5 -57q0 -32 -9.5 -65t-29 -63.5t-48 -57 t-66.5 -46.5t-84.5 -31t-102.5 -11q-54 0 -101.5 5t-87.5 15t-75 24.5t-66 33.5z" />
<glyph unicode="t" horiz-adv-x="979" d="M53 950l5 82h868l-8 -82h-373v-950h-103v950h-389z" />
<glyph unicode="u" horiz-adv-x="1233" d="M190 389v643h103v-630q0 -86 16.5 -148t55 -101.5t100 -58t151.5 -18.5q92 0 155 22t101 66t54 107.5t16 146.5v614h100v-618q0 -90 -24 -168t-76.5 -134t-134 -88t-195.5 -32q-120 0 -200.5 25t-130 74.5t-70.5 124t-21 173.5z" />
<glyph unicode="v" horiz-adv-x="1085" d="M66 1032h116l332 -850q11 -28 14.5 -48t3.5 -40q0 20 4 41t15 47l363 850h106l-452 -1032h-86z" />
<glyph unicode="w" horiz-adv-x="1579" d="M112 1032h105l225 -840q8 -28 10 -51t2 -43q0 20 3 43t12 47l266 801l109 9l268 -806q10 -28 11 -51t1 -43q0 20 4 43t10 47l222 844h104l-290 -1032h-103l-275 832q-4 14 -6 25.5t-2.5 21.5t-1 19.5t-0.5 19.5q0 -10 -0.5 -19t-2.5 -19t-5.5 -21t-7.5 -23l-282 -836h-90 z" />
<glyph unicode="x" horiz-adv-x="1032" d="M102 0l363 510l-355 522h122l296 -442l326 442h112l-376 -518l358 -514h-116l-308 438l-309 -438h-113z" />
<glyph unicode="y" horiz-adv-x="991" d="M56 1032h116l316 -522l329 522h109l-392 -614v-418h-104v406z" />
<glyph unicode="z" horiz-adv-x="1018" d="M133 62l619 886h-574l6 84h698l9 -64l-627 -884h584l-10 -84h-686z" />
<glyph unicode="{" horiz-adv-x="751" d="M49 471l7 67q64 14 113 36t82 51t50 67t17 86q0 39 -8 83.5t-18 91.5t-18 96t-8 96q0 79 27.5 135t78 95t122.5 63t162 40l16 -77q-80 -18 -138 -39t-96 -50.5t-56 -70.5t-18 -101q0 -40 8 -88t17 -95.5t17 -91t8 -77.5q0 -42 -8.5 -80t-28 -72t-53.5 -64.5t-84 -57.5 q42 -17 73 -42t52 -55.5t32 -65.5t11 -73q0 -48 -7 -100t-16 -103t-16 -99t-7 -88q0 -54 20 -92t59 -65t97.5 -47t135.5 -38l-25 -80q-96 18 -167.5 41t-119.5 57.5t-72 84.5t-24 122q0 26 3.5 57.5t9 66t11.5 71t11 71.5t9 68t4 61q0 44 -15 78t-46.5 59t-81.5 41.5 t-122 26.5z" />
<glyph unicode="|" horiz-adv-x="594" d="M250 -398v1844h96v-1844h-96z" />
<glyph unicode="}" horiz-adv-x="751" d="M78 1396l24 80q96 -19 168 -41.5t120 -57.5t72 -85t24 -122q0 -25 -4 -56.5t-9 -66t-11 -71t-11 -71.5t-9 -68t-4 -61q0 -44 15 -78t46 -59.5t81 -42.5q50 -16 122 -26l-6 -68q-64 -14 -113 -35t-82 -50t-50 -67t-17 -86q0 -39 8 -83.5t18 -91.5t18 -96t8 -97 q0 -78 -28 -135t-78 -96t-122 -63t-162 -40l-16 78q80 20 138 40.5t95.5 50t55.5 70.5t18 101q0 27 -3.5 57.5t-9 62t-12 63t-11.5 62t-9 58t-4 49.5q0 42 8 80t28 72t54 64t84 56q-42 18 -73 43.5t-52 56.5t-32 66t-11 72q0 48 7 99.5t15.5 103t15.5 99.5t7 89 q0 54 -19.5 91.5t-59 64.5t-98 46.5t-134.5 38.5z" />
<glyph unicode="~" horiz-adv-x="909" d="M102 1155q8 46 21.5 82.5t34.5 62.5t50.5 40t67.5 14q24 0 52.5 -4t59.5 -10t62.5 -12t61.5 -12t56 -10t46 -4q23 0 41.5 6t32.5 21t25 40t20 63l74 -21q-7 -50 -23 -87.5t-40 -62.5t-55 -38t-67 -13q-26 0 -56 4t-62 10.5t-65 13.5t-63.5 13.5t-57.5 10.5q-28 4 -48 4 t-34 -6t-25 -20t-20.5 -38t-18.5 -62z" />
<glyph unicode="&#xa1;" horiz-adv-x="780" d="M309 872v140h162v-140h-162zM334 -100l8 774h94l6 -774h-108z" />
<glyph unicode="&#xa2;" d="M176 506q0 106 21 198t65 162t111 116q67 44 159 60v260l96 8v-264q76 -2 140 -15.5t119 -41.5l-33 -90q-38 13 -71 22t-62.5 14t-58 7t-58.5 2q-87 0 -148.5 -26.5t-100.5 -80t-57 -134.5t-18 -189q0 -115 17 -198t51.5 -136.5t88 -78.5t128.5 -25q36 0 71.5 5.5 t72.5 17t75 29.5t78 44l35 -80q-34 -24 -66.5 -41t-65.5 -29t-67 -20t-70 -12v-244l-96 -6v246q-68 1 -121 18t-93 48.5t-67 76.5t-44 103t-24 126.5t-7 147.5z" />
<glyph unicode="&#xa3;" d="M137 80l113 10q22 45 34 103q11 59 11 125q0 10 -0.5 26t-1 35t-1 39t-1.5 38h-121l6 82h108q-2 36 -2.5 66.5t-1 56t-1.5 47.5t-1 42q0 72 20 126.5t58 92t94 56.5t126 19q76 0 134 -12t105 -38l-29 -82q-24 10 -52 18t-56.5 14t-56.5 9q-27 3 -53 3q-95 0 -141 -46 t-46 -144q0 -24 0.5 -45t1 -46t2 -57t4.5 -80h307l-6 -82h-292q6 -107 6 -147q0 -32 -3 -60t-9.5 -55.5t-17 -54.5t-24.5 -55q56 -2 106 -3t90 -3l72 -1q32 -1 50 -1q38 0 65 5t49 20t42 42t44 70l70 -41q-28 -56 -54 -91.5t-57 -55.5t-71 -27.5t-96 -7.5q-23 0 -58 1 t-77.5 2t-90.5 2t-97.5 2t-98 2t-92.5 1z" />
<glyph unicode="&#xa4;" d="M51 340l11 86h176q-2 17 -3 28.5t-1 20.5v16v17q0 32 2 60t6 52h-162l6 86h172q23 82 60 145t88.5 107t117.5 66t148 22q80 0 147.5 -14t118.5 -47l-28 -77q-59 26 -122.5 40t-121.5 14q-63 0 -113.5 -19t-87.5 -53t-63 -81t-40 -103h447l-6 -86h-457q-2 -16 -3 -28 t-2 -23.5t-1 -24.5v-30q0 -16 0.5 -39t3.5 -49h438l-6 -86h-422q23 -134 89.5 -199t182.5 -65q36 0 71.5 5t72 15t75.5 26t83 36l26 -78q-46 -27 -86.5 -45.5t-81 -29t-82.5 -15.5q-44 -4 -92 -4q-74 0 -136 20.5t-109 64t-79 110.5t-44 159h-193z" />
<glyph unicode="&#xa5;" d="M104 1032h115l305 -481l326 481h108l-282 -416h252l-6 -84h-304l-50 -73v-125h344l-9 -84h-335v-250h-101v250h-359l8 84h351v112l-53 86h-289l8 84h227z" />
<glyph unicode="&#xa6;" horiz-adv-x="594" d="M250 381h96v-779h-96v779zM250 674v772h96v-772h-96z" />
<glyph unicode="&#xa7;" d="M164 862q0 79 30 144.5t85 112t132 72t171 25.5q46 0 89 -6t81.5 -16t71.5 -25q32 -15 58 -33l-32 -79q-22 10 -56 22t-72 21.5t-78 15.5t-74 6q-24 0 -44 -2.5t-40 -5.5q2 -44 14 -89.5t32 -92t45 -94.5t54 -96l131 -228q28 -48 48 -85.5t34 -67t23 -54.5t14 -46.5 t6.5 -43t1.5 -45.5q0 -74 -28.5 -139t-82.5 -113t-131 -75t-176 -27q-46 0 -88.5 6t-81 16t-71 25t-58.5 33l31 78q23 -10 56.5 -21.5t72 -20.5t78.5 -14q40 -6 74 -6q22 0 42 1.5t39 4.5q0 27 -7.5 63.5t-24 82.5t-43.5 103t-66 124l-131 227q-26 44 -45.5 80t-34 65.5 t-24 54t-15.5 48t-8 46t-2 48.5zM264 876q0 -20 2 -39t7 -39t14 -43.5t23 -53t34 -67t47 -85.5l109 -195q41 -74 70.5 -131t48.5 -105t28 -89t9 -82q36 16 61 38t41.5 48.5t23.5 58.5q8 32 8 66q0 20 -2 39t-7 39t-14 44t-23.5 53t-35 67t-46.5 86l-109 194 q-37 66 -65.5 119t-48 101t-30.5 93t-11 95q-34 -16 -60 -38t-42 -49t-24 -59t-8 -66z" />
<glyph unicode="&#xa8;" horiz-adv-x="993" d="M226 1216v113h128v-113h-128zM626 1216v113h130v-113h-130z" />
<glyph unicode="&#xa9;" horiz-adv-x="1526" d="M196 486q0 94 21 174.5t59.5 146t92 115t119.5 83t141 51t157 17.5q96 0 174 -17.5t138 -51t104 -82t72 -109.5t41.5 -134t13.5 -157q0 -87 -19 -164.5t-54.5 -142.5t-86.5 -116.5t-116 -87.5t-142 -55.5t-163 -19.5q-136 0 -239 31t-173 98t-105 171t-35 250zM293 502 q0 -129 28 -221t85 -150.5t143.5 -86.5t204.5 -28q97 0 182.5 31t149.5 92.5t101 155t37 219.5q0 240 -110 358.5t-332 118.5q-112 0 -202 -32.5t-154 -94.5t-98.5 -153t-34.5 -209zM496 492q0 76 22 135t61 100t93 63q54 21 118 21q52 0 94 -9q40 -10 70 -26l-30 -64 q-13 6 -29.5 11t-34.5 8t-37 5t-37 2q-50 0 -86.5 -17t-61 -48.5t-36.5 -77t-12 -101.5q0 -63 12 -107t34 -71.5t54 -39.5t74 -12t89 14t99 46l31 -60q-20 -17 -46 -30.5t-56.5 -23.5t-63.5 -16t-67 -6q-60 0 -107 18.5t-80 56t-50 94.5t-17 135z" />
<glyph unicode="&#xaa;" d="M129 622q0 25 5 47t18.5 40.5t37 33.5t61 26t90.5 19t124 13v83q0 48 -23 69.5t-63 21.5q-20 0 -40.5 -3.5t-42.5 -11t-47 -20t-53 -30.5l-44 54q30 22 57 38t56 26t60 15t66 5q40 0 70 -10t49.5 -28.5t29 -45.5t9.5 -61v-333q0 -11 0.5 -18.5t3.5 -11.5t7 -6q6 -2 14 -2 q11 0 27 3t30 5l10 -54q-18 -8 -46.5 -13.5t-56.5 -5.5q-22 0 -35.5 5.5t-22 16t-12 27t-3.5 37.5q-23 -26 -46 -43.5t-46.5 -28t-48 -15.5t-52.5 -5q-30 0 -56 10.5t-45 31.5t-30.5 51t-11.5 68zM211 626q0 -48 22.5 -73t61.5 -25q28 0 53.5 9t47.5 22.5t39 31t30 35.5v114 q-60 -4 -102.5 -10.5t-70.5 -15t-44.5 -18t-24.5 -21t-10 -23.5t-2 -26z" />
<glyph unicode="&#xab;" horiz-adv-x="1124" d="M144 496l304 405l92 -29l-268 -364l230 -344l-96 -33zM534 496l308 405l90 -29l-266 -364l229 -344l-99 -33z" />
<glyph unicode="&#xac;" d="M146 461l10 90h655v-418l-101 -4v332h-564z" />
<glyph unicode="&#xad;" horiz-adv-x="696" d="M72 473l6 82h544l-4 -82h-546z" />
<glyph unicode="&#xae;" horiz-adv-x="1194" d="M133 882q0 116 37.5 205.5t102.5 150t153 91.5t190 31q218 0 331.5 -113t113.5 -333q0 -71 -15.5 -134.5t-44.5 -116t-71 -94t-95 -70.5t-116 -45t-133 -16q-119 0 -204.5 29t-140.5 86t-81.5 139t-26.5 190zM215 897q0 -195 92.5 -291t282.5 -96q78 0 147.5 23.5 t122.5 72t84 123t31 176.5q0 94 -20.5 164.5t-64 118.5t-112 72t-164.5 24q-90 0 -163 -25.5t-126 -75t-81.5 -121.5t-28.5 -165zM454 662v476h164q36 0 62 -10t43 -27.5t25 -40.5q8 -22 8 -48q0 -24 -6.5 -45t-17.5 -39t-26.5 -34t-33.5 -30l116 -202h-82l-102 186h-80 v-186h-70zM524 901h111q26 22 38.5 45.5t12.5 57.5q0 36 -21.5 58t-60.5 22h-80v-183z" />
<glyph unicode="&#xaf;" horiz-adv-x="762" d="M104 1268l8 82h546l-9 -82h-545z" />
<glyph unicode="&#xb0;" horiz-adv-x="819" d="M102 1080q0 64 22 118t68 98q90 90 218 90t216 -90q45 -45 68 -99q23 -53 23 -117t-22.5 -118.5t-68.5 -99.5q-44 -44 -98 -67t-118 -23t-118 23t-100 67q-46 45 -68 99.5t-22 118.5zM186 1080q0 -46 16 -86t50 -72q32 -32 72 -49t86 -17t86 16q40 18 72 50q66 66 65 158 q0 46 -16.5 85t-48.5 72q-32 34 -72 49.5t-86 15.5t-86 -15.5t-72 -49.5q-34 -32 -50 -71.5t-16 -85.5z" />
<glyph unicode="&#xb1;" horiz-adv-x="1124" d="M37 0v98h1051v-98h-1051zM37 694v96h477v480h98v-480h476v-96h-476v-475h-98v475h-477z" />
<glyph unicode="&#xb2;" d="M119 717l135 125q44 40 71 67.5t42 48.5t20.5 37.5t5.5 34.5t-6.5 33t-18 26.5t-28 18t-37.5 6.5q-20 0 -37.5 -3t-33.5 -10t-33 -17t-35 -25l-41 55q42 40 88.5 59t106.5 19q42 0 73 -11.5t52 -32t31 -47.5t10 -59q0 -28 -7 -51t-23 -48.5t-44 -55t-70 -68.5l-90 -81 h234l-11 -76h-344z" />
<glyph unicode="&#xb3;" d="M96 721l33 57q37 -28 75 -40q38 -13 80 -13q34 0 58 6.5t38 17.5t21 26t7 32q0 48 -41 69t-129 21v61q32 0 62 -1t48 -5q25 23 38.5 47.5t13.5 46.5q0 37 -24 56.5t-71 19.5q-18 0 -34.5 -2.5t-33.5 -9t-36 -18.5t-39 -29l-39 51q23 21 44.5 35.5t44 24t48.5 14t58 4.5 q42 0 73 -11t52 -30t31 -43t10 -51q0 -34 -20 -66t-58 -61q40 -17 63 -48t23 -73q0 -36 -16.5 -64.5t-45 -48.5t-67.5 -30t-85 -10q-59 0 -105.5 17t-76.5 48z" />
<glyph unicode="&#xb4;" horiz-adv-x="518" d="M116 1204l238 336l107 -24l-269 -342z" />
<glyph unicode="&#xb5;" horiz-adv-x="1179" d="M125 -320q0 14 2 32t8 38q14 48 23 89t12 75q6 62 9 112.5t3 92.5v797h168v-576q0 -104 18 -148q8 -23 23 -40t37 -31q24 -12 45 -19.5t43 -7.5q26 0 57 8t66 25q37 16 73 40q34 25 72 59v690h166v-602q0 -60 2 -103t8 -65q4 -17 12 -29.5t15 -20.5q10 -8 19 -11t20 -3 q26 0 47 24t31 99h41q-8 -68 -25 -114q-16 -47 -40 -71q-25 -26 -56 -38q-32 -12 -70 -12t-66 10t-50 34q-23 22 -36 61q-14 39 -18 95q-51 -58 -99.5 -96t-94.5 -62q-45 -22 -84.5 -33.5t-73.5 -11.5q-23 0 -44.5 4.5t-43.5 14.5t-43 22t-41 29q-4 -146 24 -252 q18 -79 19 -109q0 -28 -6.5 -49t-20.5 -37q-27 -32 -63 -32q-17 0 -32 7t-25 21q-16 18 -23.5 42t-7.5 52z" />
<glyph unicode="&#xb6;" horiz-adv-x="1519" d="M196 506q0 130 32.5 231t95.5 169t156 103q92 35 214 35q52 0 103 -4t92 -10v-1012q-42 -16 -101.5 -23t-129.5 -7q-110 0 -196.5 31t-145 95t-89.5 161.5t-31 230.5zM1032 0v1032h340l-6 -82h-230v-868h230l-8 -82h-326z" />
<glyph unicode="&#xb7;" horiz-adv-x="520" d="M178 398v138h162v-138h-162z" />
<glyph unicode="&#xb8;" horiz-adv-x="467" d="M45 -314q67 4 108 14t64 24t31 33t8 40q0 18 -2 45.5t-6 58.5t-9 65t-11 64l94 5q8 -24 15 -52.5t12 -58.5t8 -59t3 -51q0 -37 -13.5 -72.5t-48 -63.5t-92.5 -46t-148 -19z" />
<glyph unicode="&#xb9;" d="M94 668l4 61l160 9v376h-148l-6 70l236 10v-456l119 -9l-3 -61h-362z" />
<glyph unicode="&#xba;" d="M131 754q0 64 18.5 118t52.5 93t81 61t106 22q52 0 96 -13t76.5 -46t51 -88t18.5 -139q0 -66 -18 -121t-51.5 -94t-81.5 -60.5t-108 -21.5q-124 0 -182.5 72.5t-58.5 216.5zM213 756q0 -60 10.5 -102t31.5 -68t52 -38t72 -12q44 0 75.5 15t52.5 42.5t31.5 68t10.5 94.5 q0 112 -40.5 166.5t-121.5 54.5q-43 0 -75.5 -15.5t-54.5 -44.5t-33 -69.5t-11 -91.5z" />
<glyph unicode="&#xbb;" horiz-adv-x="1124" d="M190 160l269 364l-229 340l96 37l264 -367l-308 -403zM582 160l268 364l-230 340l97 37l264 -367l-307 -403z" />
<glyph unicode="&#xbc;" d="M78 0l796 1032h109l-797 -1032h-108zM94 668l4 61l160 9v376h-148l-6 70l236 10v-456l119 -9l-3 -61h-362zM520 53l283 349h81v-338h101l-6 -74h-95v-134h-81v134h-269zM618 64h185v231z" />
<glyph unicode="&#xbd;" d="M78 0l796 1032h109l-797 -1032h-108zM94 668l4 61l160 9v376h-148l-6 70l236 10v-456l119 -9l-3 -61h-362zM590 -80l135 123q44 40 71 68t42.5 49.5t20.5 37.5t5 34t-6 34t-18 27t-28.5 18t-37.5 7q-20 0 -37 -4t-34 -11t-33 -18t-35 -25l-41 58q42 40 89 57.5t105 17.5 q42 0 73.5 -11.5t52 -31.5t30.5 -48q10 -26 10 -58q0 -27 -6 -50.5t-23 -48.5t-45 -55q-27 -30 -69 -68l-90 -84h233l-10 -73h-344z" />
<glyph unicode="&#xbe;" d="M78 0l796 1032h109l-797 -1032h-108zM96 721l33 57q37 -28 75 -40q38 -13 80 -13q34 0 58 6.5t38 17.5t21 26t7 32q0 48 -41 69t-129 21v61q32 0 62 -1t48 -5q25 23 38.5 47.5t13.5 46.5q0 37 -24 56.5t-71 19.5q-18 0 -34.5 -2.5t-33.5 -9t-36 -18.5t-39 -29l-39 51 q23 21 44.5 35.5t44 24t48.5 14t58 4.5q42 0 73 -11t52 -30t31 -43t10 -51q0 -34 -20 -66t-58 -61q40 -17 63 -48t23 -73q0 -36 -16.5 -64.5t-45 -48.5t-67.5 -30t-85 -10q-59 0 -105.5 17t-76.5 48zM520 53l283 349h81v-338h101l-6 -74h-95v-134h-81v134h-269zM618 64h185 v231z" />
<glyph unicode="&#xbf;" horiz-adv-x="1009" d="M192 219q0 46 13 84t41.5 69.5t72 56.5t105.5 44q43 14 72 24.5t46.5 21.5t25.5 24t8 31q0 30 -6 64t-15 70l84 17q16 -34 26.5 -72.5t10.5 -72.5q0 -24 -4 -43t-14 -34t-26 -28t-41.5 -25t-60.5 -25q-36 -13 -82 -29q-44 -14 -73.5 -31t-47 -36t-25 -42t-7.5 -51 q0 -52 25 -90t71.5 -63t113.5 -37.5t151 -12.5h14q7 0 16.5 0.5t23.5 0.5t34 1l-13 -88q-20 -2 -34.5 -3.5t-25 -2.5t-18.5 -1h-16q-86 0 -152 11t-115.5 29t-83.5 44t-54.5 57t-30 66t-9.5 72zM492 872v140h164v-140h-164z" />
<glyph unicode="&#xc0;" horiz-adv-x="1112" d="M80 0l444 1032h90l418 -1032h-110l-142 340h-452l-144 -340h-104zM270 1506l105 24l241 -336l-78 -30zM360 420h390l-174 438q-6 14 -9 25.5t-5 21.5t-2.5 19.5t-0.5 19.5q0 -20 -4.5 -40.5t-16.5 -45.5z" />
<glyph unicode="&#xc1;" horiz-adv-x="1112" d="M80 0l444 1032h90l418 -1032h-110l-142 340h-452l-144 -340h-104zM360 420h390l-174 438q-6 14 -9 25.5t-5 21.5t-2.5 19.5t-0.5 19.5q0 -20 -4.5 -40.5t-16.5 -45.5zM530 1204l238 336l106 -24l-268 -342z" />
<glyph unicode="&#xc2;" horiz-adv-x="1112" d="M80 0l444 1032h90l418 -1032h-110l-142 340h-452l-144 -340h-104zM303 1190l239 338h66l230 -338l-98 -18l-177 260l-176 -258zM360 420h390l-174 438q-6 14 -9 25.5t-5 21.5t-2.5 19.5t-0.5 19.5q0 -20 -4.5 -40.5t-16.5 -45.5z" />
<glyph unicode="&#xc3;" horiz-adv-x="1112" d="M80 0l444 1032h90l418 -1032h-110l-142 340h-452l-144 -340h-104zM268 1182q8 46 22 83t35 62.5t50 39t67 13.5q26 0 56 -1l60 -2l60 -2t54 -1t42 6t32 21t25 39t19 61l76 -18q-8 -50 -24 -87.5t-40 -62.5t-54 -38t-66 -13q-29 0 -60.5 2t-63.5 4t-62 4t-58 2 q-20 0 -34 -5.5t-26 -20t-22 -38.5q-9 -24 -18 -62zM360 420h390l-174 438q-6 14 -9 25.5t-5 21.5t-2.5 19.5t-0.5 19.5q0 -20 -4.5 -40.5t-16.5 -45.5z" />
<glyph unicode="&#xc4;" horiz-adv-x="1112" d="M80 0l444 1032h90l418 -1032h-110l-142 340h-452l-144 -340h-104zM301 1216v113h129v-113h-129zM360 420h390l-174 438q-6 14 -9 25.5t-5 21.5t-2.5 19.5t-0.5 19.5q0 -20 -4.5 -40.5t-16.5 -45.5zM702 1216v113h130v-113h-130z" />
<glyph unicode="&#xc5;" horiz-adv-x="1112" d="M80 0l444 1032h90l418 -1032h-110l-142 340h-452l-144 -340h-104zM360 420h390l-174 438q-6 14 -9 25.5t-5 21.5t-2.5 19.5t-0.5 19.5q0 -20 -4.5 -40.5t-16.5 -45.5zM404 1310q0 34 12.5 64t36 52t57.5 34t74 12q80 0 125 -37t45 -112q0 -39 -13 -70.5t-36 -54 t-57 -34.5q-32 -11 -74 -11q-38 0 -70 8.5t-54 27.5t-34 48.5t-12 72.5zM494 1308q0 -23 6 -39t17 -26.5t26 -15.5t33 -5t34 6t28 17t19 28.5t7 41.5q0 22 -6.5 37.5t-17.5 26t-26 15.5q-14 5 -32 5q-22 0 -39 -6.5t-28 -18.5t-16 -29t-5 -37z" />
<glyph unicode="&#xc6;" horiz-adv-x="1663" d="M92 0l792 1032h648l-10 -84h-533v-370h477v-82h-477v-412h533l10 -84h-650v340h-417l-258 -340h-115zM524 420h358v471z" />
<glyph unicode="&#xc7;" horiz-adv-x="1087" d="M135 506q0 118 29.5 216.5t88 170t144.5 111.5t199 40q90 0 169 -17t157 -52l-17 -305l-86 -4v246q-60 22 -117 33t-108 11q-92 0 -158 -28.5t-109 -85t-63 -139.5t-20 -191q0 -112 20 -193.5t62 -134.5t106 -78q66 -26 154 -26q46 0 92 7t91.5 21t88 34t80.5 46l45 -69 q-72 -58 -159.5 -89.5t-192.5 -37.5q6 -22 11 -46t8.5 -47t5.5 -45t2 -40q0 -37 -14 -72.5t-48 -63.5t-93 -46t-149 -19l-12 73q67 4 108.5 14t64 24t30.5 33t8 40q0 16 -1.5 37.5t-5 47.5t-7.5 54q-5 28 -9 56q-104 6 -178 41t-122.5 99t-71.5 157.5t-23 216.5z" />
<glyph unicode="&#xc8;" horiz-adv-x="1022" d="M223 0v1032h649l-10 -84h-534v-370h479v-82h-479v-412h534l10 -84h-649zM260 1506l104 24l242 -336l-78 -30z" />
<glyph unicode="&#xc9;" horiz-adv-x="1022" d="M223 0v1032h649l-10 -84h-534v-370h479v-82h-479v-412h534l10 -84h-649zM520 1204l238 336l106 -24l-268 -342z" />
<glyph unicode="&#xca;" horiz-adv-x="1022" d="M223 0v1032h649l-10 -84h-534v-370h479v-82h-479v-412h534l10 -84h-649zM293 1190l239 338h66l230 -338l-99 -18l-176 260l-176 -258z" />
<glyph unicode="&#xcb;" horiz-adv-x="1022" d="M223 0v1032h649l-10 -84h-534v-370h479v-82h-479v-412h534l10 -84h-649zM291 1216v113h129v-113h-129zM692 1216v113h129v-113h-129z" />
<glyph unicode="&#xcc;" horiz-adv-x="798" d="M102 1506l105 24l241 -336l-78 -30zM154 0v72l192 8v872l-192 4v76h491v-74l-193 -6v-872l193 -4v-76h-491z" />
<glyph unicode="&#xcd;" horiz-adv-x="798" d="M154 0v72l192 8v872l-192 4v76h491v-74l-193 -6v-872l193 -4v-76h-491zM360 1204l238 336l106 -24l-268 -342z" />
<glyph unicode="&#xce;" horiz-adv-x="798" d="M133 1190l239 338h66l230 -338l-98 -18l-177 260l-176 -258zM154 0v72l192 8v872l-192 4v76h491v-74l-193 -6v-872l193 -4v-76h-491z" />
<glyph unicode="&#xcf;" horiz-adv-x="798" d="M131 1216v113h129v-113h-129zM154 0v72l192 8v872l-192 4v76h491v-74l-193 -6v-872l193 -4v-76h-491zM532 1216v113h130v-113h-130z" />
<glyph unicode="&#xd0;" horiz-adv-x="1220" d="M58 486l6 82h194v464h338q114 0 205 -25t154 -83.5t97 -154t34 -235.5q0 -70 -13 -137t-40 -126.5t-68 -109t-99 -85.5t-133 -56t-168 -20h-307v486h-200zM364 82h201q109 0 187 34.5t128 96t73.5 145.5t23.5 182q0 94 -22 170.5t-69.5 130t-122.5 81.5t-181 28h-218 v-382h224l-6 -82h-218v-404z" />
<glyph unicode="&#xd1;" horiz-adv-x="1302" d="M223 0v1032h97l624 -806q22 -30 34 -51t16 -35v892h92v-1032h-92l-630 805q-23 28 -35.5 50.5t-14.5 37.5v-893h-91zM364 1182q8 46 22 83t35 62.5t50 39t67 13.5q26 0 56 -1l60 -2l60 -2t54 -1t42 6t32 21t25 39t20 61l75 -18q-16 -100 -64.5 -150.5t-119.5 -50.5 q-29 0 -60.5 2t-63.5 4t-62 4t-58 2q-19 0 -33.5 -5.5t-26 -20t-20.5 -38.5q-10 -24 -20 -62z" />
<glyph unicode="&#xd2;" horiz-adv-x="1237" d="M135 500q0 124 35 225t99.5 172t155.5 109t203 38q71 0 133.5 -11t115.5 -36t94.5 -65t70.5 -98.5t44.5 -135.5t15.5 -176q0 -72 -14 -140t-41 -127t-68 -108t-96.5 -85t-124.5 -55t-152 -19q-114 0 -202 29t-148 91t-90.5 159t-30.5 233zM240 510q0 -104 20 -186 t65 -138t118 -85t177 -29q92 0 162 33.5t117.5 94t72 144.5t24.5 184q0 63 -8 119.5t-26 104.5t-46.5 86t-70 65t-97.5 41t-128 14q-92 0 -162 -33t-119 -92t-74 -141.5t-25 -181.5zM328 1506l104 24l242 -336l-78 -30z" />
<glyph unicode="&#xd3;" horiz-adv-x="1237" d="M135 500q0 124 35 225t99.5 172t155.5 109t203 38q71 0 133.5 -11t115.5 -36t94.5 -65t70.5 -98.5t44.5 -135.5t15.5 -176q0 -72 -14 -140t-41 -127t-68 -108t-96.5 -85t-124.5 -55t-152 -19q-114 0 -202 29t-148 91t-90.5 159t-30.5 233zM240 510q0 -104 20 -186 t65 -138t118 -85t177 -29q92 0 162 33.5t117.5 94t72 144.5t24.5 184q0 63 -8 119.5t-26 104.5t-46.5 86t-70 65t-97.5 41t-128 14q-92 0 -162 -33t-119 -92t-74 -141.5t-25 -181.5zM588 1204l238 336l106 -24l-268 -342z" />
<glyph unicode="&#xd4;" horiz-adv-x="1237" d="M135 500q0 124 35 225t99.5 172t155.5 109t203 38q71 0 133.5 -11t115.5 -36t94.5 -65t70.5 -98.5t44.5 -135.5t15.5 -176q0 -72 -14 -140t-41 -127t-68 -108t-96.5 -85t-124.5 -55t-152 -19q-114 0 -202 29t-148 91t-90.5 159t-30.5 233zM240 510q0 -104 20 -186 t65 -138t118 -85t177 -29q92 0 162 33.5t117.5 94t72 144.5t24.5 184q0 63 -8 119.5t-26 104.5t-46.5 86t-70 65t-97.5 41t-128 14q-92 0 -162 -33t-119 -92t-74 -141.5t-25 -181.5zM360 1190l240 338h66l229 -338l-99 -18l-176 260l-176 -258z" />
<glyph unicode="&#xd5;" horiz-adv-x="1237" d="M135 500q0 124 35 225t99.5 172t155.5 109t203 38q71 0 133.5 -11t115.5 -36t94.5 -65t70.5 -98.5t44.5 -135.5t15.5 -176q0 -72 -14 -140t-41 -127t-68 -108t-96.5 -85t-124.5 -55t-152 -19q-114 0 -202 29t-148 91t-90.5 159t-30.5 233zM240 510q0 -104 20 -186 t65 -138t118 -85t177 -29q92 0 162 33.5t117.5 94t72 144.5t24.5 184q0 63 -8 119.5t-26 104.5t-46.5 86t-70 65t-97.5 41t-128 14q-92 0 -162 -33t-119 -92t-74 -141.5t-25 -181.5zM340 1182q8 46 22 83t34.5 62.5t49.5 39t68 13.5q26 0 55.5 -1t60 -2t60.5 -2t54 -1t42 6 t32 21t24.5 39t19.5 61l76 -18q-16 -100 -65 -150.5t-119 -50.5q-29 0 -61 2t-63.5 4t-62 4t-57.5 2q-19 0 -33.5 -5.5t-26.5 -20t-22 -38.5t-18 -62z" />
<glyph unicode="&#xd6;" horiz-adv-x="1237" d="M135 500q0 124 35 225t99.5 172t155.5 109t203 38q71 0 133.5 -11t115.5 -36t94.5 -65t70.5 -98.5t44.5 -135.5t15.5 -176q0 -72 -14 -140t-41 -127t-68 -108t-96.5 -85t-124.5 -55t-152 -19q-114 0 -202 29t-148 91t-90.5 159t-30.5 233zM240 510q0 -104 20 -186 t65 -138t118 -85t177 -29q92 0 162 33.5t117.5 94t72 144.5t24.5 184q0 63 -8 119.5t-26 104.5t-46.5 86t-70 65t-97.5 41t-128 14q-92 0 -162 -33t-119 -92t-74 -141.5t-25 -181.5zM358 1216v113h130v-113h-130zM760 1216v113h129v-113h-129z" />
<glyph unicode="&#xd7;" d="M205 817l81 57l246 -304l244 304l80 -57l-264 -315l262 -314l-76 -53l-250 305l-244 -305l-77 53l262 314z" />
<glyph unicode="&#xd8;" horiz-adv-x="1237" d="M135 500q0 124 35 225t99.5 172t155.5 109t203 38q59 0 113.5 -8t102.5 -26l78 143l86 -23l-90 -155q44 -28 78 -69t57.5 -96.5t36 -126.5t12.5 -161q0 -72 -14 -140t-41 -127t-68 -108t-96.5 -85t-124.5 -55t-152 -19q-66 0 -122 9t-105 29l-86 -155l-86 23l100 172 q-86 60 -129 166.5t-43 267.5zM240 510q0 -122 26 -211t88 -143l440 772q-34 16 -78 23t-96 7q-92 0 -162 -33t-119 -92t-74 -141.5t-25 -181.5zM428 108q37 -18 84.5 -27t107.5 -9q92 0 162 33.5t117.5 94t72 144.5t24.5 184q0 59 -7 112t-22 98.5t-39 82.5t-58 66z" />
<glyph unicode="&#xd9;" horiz-adv-x="1233" d="M190 389v643h103v-630q0 -86 16.5 -148t55 -101.5t100 -58t151.5 -18.5q92 0 155 22t101 66t54 107.5t16 146.5v614h100v-618q0 -90 -24 -168t-76.5 -134t-134 -88t-195.5 -32q-120 0 -200.5 25t-130 74.5t-70.5 124t-21 173.5zM320 1506l104 24l242 -336l-78 -30z" />
<glyph unicode="&#xda;" horiz-adv-x="1233" d="M190 389v643h103v-630q0 -86 16.5 -148t55 -101.5t100 -58t151.5 -18.5q92 0 155 22t101 66t54 107.5t16 146.5v614h100v-618q0 -90 -24 -168t-76.5 -134t-134 -88t-195.5 -32q-120 0 -200.5 25t-130 74.5t-70.5 124t-21 173.5zM578 1204l237 336l107 -24l-268 -342z" />
<glyph unicode="&#xdb;" horiz-adv-x="1233" d="M190 389v643h103v-630q0 -86 16.5 -148t55 -101.5t100 -58t151.5 -18.5q92 0 155 22t101 66t54 107.5t16 146.5v614h100v-618q0 -90 -24 -168t-76.5 -134t-134 -88t-195.5 -32q-120 0 -200.5 25t-130 74.5t-70.5 124t-21 173.5zM358 1190l240 338h66l229 -338l-99 -18 l-176 260l-176 -258z" />
<glyph unicode="&#xdc;" horiz-adv-x="1233" d="M190 389v643h103v-630q0 -86 16.5 -148t55 -101.5t100 -58t151.5 -18.5q92 0 155 22t101 66t54 107.5t16 146.5v614h100v-618q0 -90 -24 -168t-76.5 -134t-134 -88t-195.5 -32q-120 0 -200.5 25t-130 74.5t-70.5 124t-21 173.5zM354 1216v113h130v-113h-130zM756 1216 v113h128v-113h-128z" />
<glyph unicode="&#xdd;" horiz-adv-x="991" d="M56 1032h116l316 -522l329 522h109l-392 -614v-418h-104v406zM448 1204l238 336l106 -24l-268 -342z" />
<glyph unicode="&#xde;" horiz-adv-x="997" d="M223 0v1122h103v-174h212q86 0 148.5 -25t103 -68t59.5 -100.5t19 -123.5q0 -82 -25.5 -151.5t-74.5 -120.5t-120.5 -80t-163.5 -29q-21 0 -43 1t-42.5 2t-39.5 3t-33 4v-260h-103zM326 346q14 -3 33 -5.5t41 -3.5l44 -2t44 -1q74 0 126.5 23.5t86 63t48.5 91.5t15 108 q0 48 -13 92t-43 78t-76.5 54t-113.5 20h-192v-518z" />
<glyph unicode="&#xdf;" horiz-adv-x="1917" d="M135 70l39 92q32 -16 67 -30t72.5 -25t76 -17t77.5 -6q62 0 106.5 15t72.5 39t41 53.5t13 58.5q0 24 -3 44t-13 38.5t-27 35t-45 33.5t-66 34.5t-92 37.5q-56 20 -97 39.5t-72 40.5t-51.5 43t-33 48t-17.5 56t-5 66q0 54 23.5 104t68 88.5t109.5 61t147 22.5 q79 0 146.5 -16t121.5 -49l-32 -90q-71 30 -131.5 45.5t-118.5 15.5q-62 0 -105.5 -12t-72 -34t-41.5 -53t-13 -69q0 -25 3 -45.5t12 -39t25 -35t42 -32.5t63 -33t89 -36q62 -22 108 -44.5t78 -44.5t52.5 -45.5t32 -49t16 -52.5t4.5 -57q0 -32 -9.5 -65t-29 -63.5t-48 -57 t-66.5 -46.5t-84.5 -31t-102.5 -11q-54 0 -101.5 5t-87.5 15t-75 24.5t-66 33.5zM1094 70l38 92q32 -16 67 -30t73 -25t76 -17q40 -6 78 -6q62 0 106 15t72 39t41.5 53.5t13.5 58.5q0 24 -3.5 44t-13.5 38.5t-27 35t-44.5 33.5t-66 34.5t-91.5 37.5q-55 20 -97 39.5 t-73 40.5t-51 43t-32.5 48t-18 56t-5.5 66q0 54 24 104t68.5 88.5t109 61t147.5 22.5q78 0 146 -16t122 -49l-33 -90q-71 30 -131 45q-61 16 -119 16q-62 0 -105 -12t-71.5 -34t-41.5 -53t-13 -69q0 -25 3 -45.5t11.5 -39t24.5 -35t42 -32.5t64 -33q36 -17 88 -36 q62 -22 108 -44.5t78 -44.5t53 -45.5t32.5 -49t16 -52.5t4.5 -57q0 -32 -10 -65t-29 -63.5t-48 -57t-66.5 -46.5t-84 -31t-102.5 -11q-54 0 -101.5 5t-88 15t-75 24.5t-65.5 33.5z" />
<glyph unicode="&#xe0;" horiz-adv-x="1112" d="M80 0l444 1032h90l418 -1032h-110l-142 340h-452l-144 -340h-104zM270 1506l105 24l241 -336l-78 -30zM360 420h390l-174 438q-6 14 -9 25.5t-5 21.5t-2.5 19.5t-0.5 19.5q0 -20 -4.5 -40.5t-16.5 -45.5z" />
<glyph unicode="&#xe1;" horiz-adv-x="1112" d="M80 0l444 1032h90l418 -1032h-110l-142 340h-452l-144 -340h-104zM360 420h390l-174 438q-6 14 -9 25.5t-5 21.5t-2.5 19.5t-0.5 19.5q0 -20 -4.5 -40.5t-16.5 -45.5zM530 1204l238 336l106 -24l-268 -342z" />
<glyph unicode="&#xe2;" horiz-adv-x="1112" d="M80 0l444 1032h90l418 -1032h-110l-142 340h-452l-144 -340h-104zM303 1190l239 338h66l230 -338l-98 -18l-177 260l-176 -258zM360 420h390l-174 438q-6 14 -9 25.5t-5 21.5t-2.5 19.5t-0.5 19.5q0 -20 -4.5 -40.5t-16.5 -45.5z" />
<glyph unicode="&#xe3;" horiz-adv-x="1112" d="M80 0l444 1032h90l418 -1032h-110l-142 340h-452l-144 -340h-104zM266 1182q8 46 22 83t35 62.5t50 39t67 13.5q26 0 56 -1l60 -2l60 -2t54 -1t42 6t32 21t25 39t19 61l76 -18q-8 -50 -24 -87.5t-40 -62.5t-54 -38t-66 -13q-29 0 -60.5 2t-63.5 4t-62.5 4t-57.5 2 q-19 0 -33.5 -5.5t-26.5 -20t-22 -38.5q-9 -24 -18 -62zM360 420h390l-174 438q-6 14 -9 25.5t-5 21.5t-2.5 19.5t-0.5 19.5q0 -20 -4.5 -40.5t-16.5 -45.5z" />
<glyph unicode="&#xe4;" horiz-adv-x="1112" d="M80 0l444 1032h90l418 -1032h-110l-142 340h-452l-144 -340h-104zM301 1216v113h129v-113h-129zM360 420h390l-174 438q-6 14 -9 25.5t-5 21.5t-2.5 19.5t-0.5 19.5q0 -20 -4.5 -40.5t-16.5 -45.5zM702 1216v113h130v-113h-130z" />
<glyph unicode="&#xe5;" horiz-adv-x="1112" d="M80 0l444 1032h90l418 -1032h-110l-142 340h-452l-144 -340h-104zM360 420h390l-174 438q-6 14 -9 25.5t-5 21.5t-2.5 19.5t-0.5 19.5q0 -20 -4.5 -40.5t-16.5 -45.5zM404 1310q0 34 12.5 64t36 52t57.5 34t74 12q80 0 125 -37t45 -112q0 -39 -13 -70.5t-36 -54 t-57 -34.5q-32 -11 -74 -11q-38 0 -70 8.5t-54 27.5t-34 48.5t-12 72.5zM494 1308q0 -23 6 -39t17 -26.5t26 -15.5t33 -5t34 6t28 17t19 28.5t7 41.5q0 22 -6.5 37.5t-17.5 26t-26 15.5q-14 5 -32 5q-22 0 -39 -6.5t-28 -18.5t-16 -29t-5 -37z" />
<glyph unicode="&#xe6;" horiz-adv-x="1663" d="M92 0l792 1032h648l-10 -84h-533v-370h477v-82h-477v-412h533l10 -84h-650v340h-417l-258 -340h-115zM524 420h358v471z" />
<glyph unicode="&#xe7;" horiz-adv-x="1087" d="M135 506q0 118 29.5 216.5t88 170t144.5 111.5t199 40q90 0 169 -17t157 -52l-17 -305l-86 -4v246q-60 22 -117 33t-108 11q-92 0 -158 -28.5t-109 -85t-63 -139.5t-20 -191q0 -112 20 -193.5t62 -134.5t106 -78q66 -26 154 -26q46 0 92 7t91.5 21t88 34t80.5 46l45 -69 q-72 -58 -159.5 -89.5t-192.5 -37.5q6 -22 11 -46t8.5 -47t5.5 -45t2 -40q0 -37 -14 -72.5t-48 -63.5t-93 -46t-149 -19l-12 73q67 4 108.5 14t64 24t30.5 33t8 40q0 16 -1.5 37.5t-5 47.5t-7.5 54q-5 28 -9 56q-104 6 -178 41t-122.5 99t-71.5 157.5t-23 216.5z" />
<glyph unicode="&#xe8;" horiz-adv-x="1022" d="M223 0v1032h649l-10 -84h-534v-370h479v-82h-479v-412h534l10 -84h-649zM260 1506l104 24l242 -336l-78 -30z" />
<glyph unicode="&#xe9;" horiz-adv-x="1022" d="M223 0v1032h649l-10 -84h-534v-370h479v-82h-479v-412h534l10 -84h-649zM520 1204l238 336l106 -24l-268 -342z" />
<glyph unicode="&#xea;" horiz-adv-x="1022" d="M223 0v1032h649l-10 -84h-534v-370h479v-82h-479v-412h534l10 -84h-649zM293 1190l239 338h66l230 -338l-99 -18l-176 260l-176 -258z" />
<glyph unicode="&#xeb;" horiz-adv-x="1022" d="M223 0v1032h649l-10 -84h-534v-370h479v-82h-479v-412h534l10 -84h-649zM291 1216v113h129v-113h-129zM692 1216v113h129v-113h-129z" />
<glyph unicode="&#xec;" horiz-adv-x="798" d="M102 1506l105 24l241 -336l-78 -30zM154 0v72l192 8v872l-192 4v76h491v-74l-193 -6v-872l193 -4v-76h-491z" />
<glyph unicode="&#xed;" horiz-adv-x="798" d="M154 0v72l192 8v872l-192 4v76h491v-74l-193 -6v-872l193 -4v-76h-491zM360 1204l238 336l106 -24l-268 -342z" />
<glyph unicode="&#xee;" horiz-adv-x="798" d="M133 1190l239 338h66l230 -338l-98 -18l-177 260l-176 -258zM154 0v72l192 8v872l-192 4v76h491v-74l-193 -6v-872l193 -4v-76h-491z" />
<glyph unicode="&#xef;" horiz-adv-x="798" d="M131 1216v113h129v-113h-129zM154 0v72l192 8v872l-192 4v76h491v-74l-193 -6v-872l193 -4v-76h-491zM532 1216v113h130v-113h-130z" />
<glyph unicode="&#xf0;" horiz-adv-x="1220" d="M58 486l6 82h194v464h338q114 0 205 -25t154 -83.5t97 -154t34 -235.5q0 -70 -13 -137t-40 -126.5t-68 -109t-99 -85.5t-133 -56t-168 -20h-307v486h-200zM364 82h201q109 0 187 34.5t128 96t73.5 145.5t23.5 182q0 94 -22 170.5t-69.5 130t-122.5 81.5t-181 28h-218 v-382h224l-6 -82h-218v-404z" />
<glyph unicode="&#xf1;" horiz-adv-x="1302" d="M223 0v1032h97l624 -806q22 -30 34 -51t16 -35v892h92v-1032h-92l-630 805q-23 28 -35.5 50.5t-14.5 37.5v-893h-91zM362 1182q8 46 22 83t35 62.5t50 39t67 13.5q26 0 56 -1l60 -2l60 -2t54 -1t42 6t32 21t25 39t19 61l76 -18q-16 -100 -64.5 -150.5t-119.5 -50.5 q-29 0 -60.5 2t-63.5 4t-62 4t-58 2q-19 0 -33.5 -5.5t-26.5 -20t-22 -38.5q-9 -24 -18 -62z" />
<glyph unicode="&#xf2;" horiz-adv-x="1237" d="M135 500q0 124 35 225t99.5 172t155.5 109t203 38q71 0 133.5 -11t115.5 -36t94.5 -65t70.5 -98.5t44.5 -135.5t15.5 -176q0 -72 -14 -140t-41 -127t-68 -108t-96.5 -85t-124.5 -55t-152 -19q-114 0 -202 29t-148 91t-90.5 159t-30.5 233zM240 510q0 -104 20 -186 t65 -138t118 -85t177 -29q92 0 162 33.5t117.5 94t72 144.5t24.5 184q0 63 -8 119.5t-26 104.5t-46.5 86t-70 65t-97.5 41t-128 14q-92 0 -162 -33t-119 -92t-74 -141.5t-25 -181.5zM328 1506l104 24l242 -336l-78 -30z" />
<glyph unicode="&#xf3;" horiz-adv-x="1237" d="M135 500q0 124 35 225t99.5 172t155.5 109t203 38q71 0 133.5 -11t115.5 -36t94.5 -65t70.5 -98.5t44.5 -135.5t15.5 -176q0 -72 -14 -140t-41 -127t-68 -108t-96.5 -85t-124.5 -55t-152 -19q-114 0 -202 29t-148 91t-90.5 159t-30.5 233zM240 510q0 -104 20 -186 t65 -138t118 -85t177 -29q92 0 162 33.5t117.5 94t72 144.5t24.5 184q0 63 -8 119.5t-26 104.5t-46.5 86t-70 65t-97.5 41t-128 14q-92 0 -162 -33t-119 -92t-74 -141.5t-25 -181.5zM588 1204l238 336l106 -24l-268 -342z" />
<glyph unicode="&#xf4;" horiz-adv-x="1237" d="M135 500q0 124 35 225t99.5 172t155.5 109t203 38q71 0 133.5 -11t115.5 -36t94.5 -65t70.5 -98.5t44.5 -135.5t15.5 -176q0 -72 -14 -140t-41 -127t-68 -108t-96.5 -85t-124.5 -55t-152 -19q-114 0 -202 29t-148 91t-90.5 159t-30.5 233zM240 510q0 -104 20 -186 t65 -138t118 -85t177 -29q92 0 162 33.5t117.5 94t72 144.5t24.5 184q0 63 -8 119.5t-26 104.5t-46.5 86t-70 65t-97.5 41t-128 14q-92 0 -162 -33t-119 -92t-74 -141.5t-25 -181.5zM360 1190l240 338h66l229 -338l-99 -18l-176 260l-176 -258z" />
<glyph unicode="&#xf5;" horiz-adv-x="1237" d="M135 500q0 124 35 225t99.5 172t155.5 109t203 38q71 0 133.5 -11t115.5 -36t94.5 -65t70.5 -98.5t44.5 -135.5t15.5 -176q0 -72 -14 -140t-41 -127t-68 -108t-96.5 -85t-124.5 -55t-152 -19q-114 0 -202 29t-148 91t-90.5 159t-30.5 233zM240 510q0 -104 20 -186 t65 -138t118 -85t177 -29q92 0 162 33.5t117.5 94t72 144.5t24.5 184q0 63 -8 119.5t-26 104.5t-46.5 86t-70 65t-97.5 41t-128 14q-92 0 -162 -33t-119 -92t-74 -141.5t-25 -181.5zM340 1182q8 46 22 83t34.5 62.5t49.5 39t68 13.5q26 0 55.5 -1t60 -2t60.5 -2t54 -1t42 6 t32 21t24.5 39t19.5 61l76 -18q-16 -100 -65 -150.5t-119 -50.5q-29 0 -61 2t-63.5 4t-62 4t-57.5 2q-19 0 -33.5 -5.5t-26.5 -20t-22 -38.5t-18 -62z" />
<glyph unicode="&#xf6;" horiz-adv-x="1237" d="M135 500q0 124 35 225t99.5 172t155.5 109t203 38q71 0 133.5 -11t115.5 -36t94.5 -65t70.5 -98.5t44.5 -135.5t15.5 -176q0 -72 -14 -140t-41 -127t-68 -108t-96.5 -85t-124.5 -55t-152 -19q-114 0 -202 29t-148 91t-90.5 159t-30.5 233zM240 510q0 -104 20 -186 t65 -138t118 -85t177 -29q92 0 162 33.5t117.5 94t72 144.5t24.5 184q0 63 -8 119.5t-26 104.5t-46.5 86t-70 65t-97.5 41t-128 14q-92 0 -162 -33t-119 -92t-74 -141.5t-25 -181.5zM358 1216v113h130v-113h-130zM760 1216v113h129v-113h-129z" />
<glyph unicode="&#xf7;" horiz-adv-x="1124" d="M37 477v99h1051v-99h-1051zM450 205q0 23 9 42t25 35q33 34 77 34q47 0 80 -34q16 -17 24.5 -35.5t8.5 -41.5q0 -24 -9 -43.5t-24 -36.5q-17 -16 -37 -24.5t-43 -8.5t-42 9t-35 24q-16 17 -25 36.5t-9 43.5zM450 844q0 23 8 42.5t26 35.5q16 17 35 24.5t42 7.5 q24 0 43.5 -8t34.5 -24q16 -16 24.5 -35.5t8.5 -42.5q0 -24 -9 -43t-24 -35q-16 -17 -35.5 -25t-42.5 -8t-43 8q-18 8 -34 25q-17 16 -25.5 35t-8.5 43z" />
<glyph unicode="&#xf8;" horiz-adv-x="1237" d="M135 500q0 124 35 225t99.5 172t155.5 109t203 38q59 0 113.5 -8t102.5 -26l78 143l86 -23l-90 -155q44 -28 78 -69t57.5 -96.5t36 -126.5t12.5 -161q0 -72 -14 -140t-41 -127t-68 -108t-96.5 -85t-124.5 -55t-152 -19q-66 0 -122 9t-105 29l-86 -155l-86 23l100 172 q-86 60 -129 166.5t-43 267.5zM240 510q0 -122 26 -211t88 -143l440 772q-34 16 -78 23t-96 7q-92 0 -162 -33t-119 -92t-74 -141.5t-25 -181.5zM428 108q37 -18 84.5 -27t107.5 -9q92 0 162 33.5t117.5 94t72 144.5t24.5 184q0 59 -7 112t-22 98.5t-39 82.5t-58 66z" />
<glyph unicode="&#xf9;" horiz-adv-x="1233" d="M190 389v643h103v-630q0 -86 16.5 -148t55 -101.5t100 -58t151.5 -18.5q92 0 155 22t101 66t54 107.5t16 146.5v614h100v-618q0 -90 -24 -168t-76.5 -134t-134 -88t-195.5 -32q-120 0 -200.5 25t-130 74.5t-70.5 124t-21 173.5zM320 1506l104 24l242 -336l-78 -30z" />
<glyph unicode="&#xfa;" horiz-adv-x="1233" d="M190 389v643h103v-630q0 -86 16.5 -148t55 -101.5t100 -58t151.5 -18.5q92 0 155 22t101 66t54 107.5t16 146.5v614h100v-618q0 -90 -24 -168t-76.5 -134t-134 -88t-195.5 -32q-120 0 -200.5 25t-130 74.5t-70.5 124t-21 173.5zM578 1204l237 336l107 -24l-268 -342z" />
<glyph unicode="&#xfb;" horiz-adv-x="1233" d="M190 389v643h103v-630q0 -86 16.5 -148t55 -101.5t100 -58t151.5 -18.5q92 0 155 22t101 66t54 107.5t16 146.5v614h100v-618q0 -90 -24 -168t-76.5 -134t-134 -88t-195.5 -32q-120 0 -200.5 25t-130 74.5t-70.5 124t-21 173.5zM356 1190l240 338h66l229 -338l-99 -18 l-176 260l-176 -258z" />
<glyph unicode="&#xfc;" horiz-adv-x="1233" d="M190 389v643h103v-630q0 -86 16.5 -148t55 -101.5t100 -58t151.5 -18.5q92 0 155 22t101 66t54 107.5t16 146.5v614h100v-618q0 -90 -24 -168t-76.5 -134t-134 -88t-195.5 -32q-120 0 -200.5 25t-130 74.5t-70.5 124t-21 173.5zM348 1216v113h129v-113h-129zM750 1216 v113h128v-113h-128z" />
<glyph unicode="&#xfd;" horiz-adv-x="991" d="M56 1032h116l316 -522l329 522h109l-392 -614v-418h-104v406zM448 1204l238 336l106 -24l-268 -342z" />
<glyph unicode="&#xfe;" horiz-adv-x="997" d="M223 0v1122h103v-174h212q86 0 148.5 -25t103 -68t59.5 -100.5t19 -123.5q0 -82 -25.5 -151.5t-74.5 -120.5t-120.5 -80t-163.5 -29q-21 0 -43 1t-42.5 2t-39.5 3t-33 4v-260h-103zM326 346q14 -3 33 -5.5t41 -3.5l44 -2t44 -1q74 0 126.5 23.5t86 63t48.5 91.5t15 108 q0 48 -13 92t-43 78t-76.5 54t-113.5 20h-192v-518z" />
<glyph unicode="&#xff;" horiz-adv-x="991" d="M56 1032h116l316 -522l329 522h109l-392 -614v-418h-104v406zM228 1216v113h128v-113h-128zM628 1216v113h130v-113h-130z" />
<glyph unicode="&#x152;" horiz-adv-x="1706" d="M135 500q0 124 35 225t99.5 172t155.5 109t203 38q50 0 92 -5t78 -15t68 -26q32 -18 60 -40v74h647l-9 -84h-536v-370h482v-82h-482v-412h536l11 -84h-649v104q-29 -28 -62.5 -50t-72.5 -37t-85 -22t-100 -7q-114 0 -202 29t-148 91t-90.5 159t-30.5 233zM240 510 q0 -104 20 -186t65 -138t118 -85t177 -29q94 0 171 36.5t135 102.5v645q-28 26 -60 45t-69 32t-81 19t-96 6q-92 0 -162 -33t-119 -92t-74 -141.5t-25 -181.5z" />
<glyph unicode="&#x153;" horiz-adv-x="1706" d="M135 500q0 124 35 225t99.5 172t155.5 109t203 38q50 0 92 -5t78 -15t68 -26q32 -18 60 -40v74h647l-9 -84h-536v-370h482v-82h-482v-412h536l11 -84h-649v104q-29 -28 -62.5 -50t-72.5 -37t-85 -22t-100 -7q-114 0 -202 29t-148 91t-90.5 159t-30.5 233zM240 510 q0 -104 20 -186t65 -138t118 -85t177 -29q94 0 171 36.5t135 102.5v645q-28 26 -60 45t-69 32t-81 19t-96 6q-92 0 -162 -33t-119 -92t-74 -141.5t-25 -181.5z" />
<glyph unicode="&#x178;" horiz-adv-x="991" d="M56 1032h116l316 -522l329 522h109l-392 -614v-418h-104v406zM230 1216v113h128v-113h-128zM631 1216v113h129v-113h-129z" />
<glyph unicode="&#x2c6;" horiz-adv-x="749" d="M106 1190l240 338h66l229 -338l-99 -18l-176 260l-176 -258z" />
<glyph unicode="&#x2dc;" horiz-adv-x="735" d="M68 1182q8 46 21.5 83t34 62.5t49.5 39t69 13.5q26 0 55 -1t60 -2t60 -2t54 -1q24 0 42 6t32 21t24.5 39t20.5 61l76 -18q-8 -50 -24.5 -87.5t-40 -62.5t-53.5 -38t-66 -13q-29 0 -61 2t-63.5 4t-62.5 4t-57 2q-19 0 -34 -5.5t-26.5 -20t-21.5 -38.5t-19 -62z" />
<glyph unicode="&#x2000;" horiz-adv-x="770" />
<glyph unicode="&#x2001;" horiz-adv-x="1540" />
<glyph unicode="&#x2002;" horiz-adv-x="770" />
<glyph unicode="&#x2003;" horiz-adv-x="1540" />
<glyph unicode="&#x2004;" horiz-adv-x="513" />
<glyph unicode="&#x2005;" horiz-adv-x="385" />
<glyph unicode="&#x2006;" horiz-adv-x="256" />
<glyph unicode="&#x2007;" horiz-adv-x="256" />
<glyph unicode="&#x2008;" horiz-adv-x="192" />
<glyph unicode="&#x2009;" horiz-adv-x="308" />
<glyph unicode="&#x200a;" horiz-adv-x="85" />
<glyph unicode="&#x2010;" horiz-adv-x="696" d="M72 473l6 82h544l-4 -82h-546z" />
<glyph unicode="&#x2011;" horiz-adv-x="696" d="M72 473l6 82h544l-4 -82h-546z" />
<glyph unicode="&#x2012;" horiz-adv-x="696" d="M72 473l6 82h544l-4 -82h-546z" />
<glyph unicode="&#x2013;" horiz-adv-x="1116" d="M146 471l10 82h815l-7 -82h-818z" />
<glyph unicode="&#x2014;" horiz-adv-x="2175" d="M-12 471l10 82h2190l-11 -82h-2189z" />
<glyph unicode="&#x2018;" horiz-adv-x="581" d="M116 1044q0 54 20 96t58 75t94 61t126 55l32 -67q-60 -26 -101.5 -49t-67 -45t-36.5 -44t-11 -46q0 -20 4 -47t11 -57t16 -62t19 -60l-84 -16q-17 18 -31.5 41.5t-25 51t-17 56.5t-6.5 57z" />
<glyph unicode="&#x2019;" horiz-adv-x="581" d="M135 903q61 27 102.5 50t67 45t36.5 44t11 46q0 20 -4 47t-11 57t-16 62t-18 61l84 14q16 -17 30.5 -41t25.5 -51t17.5 -56t6.5 -57q0 -54 -20 -95t-58 -75t-93.5 -62t-125.5 -56z" />
<glyph unicode="&#x201a;" horiz-adv-x="559" d="M80 -254q60 26 102 49t67 45t36.5 44t11.5 46q0 20 -4.5 47t-11.5 57.5t-16 62t-19 61.5l86 14q16 -18 30.5 -42t25.5 -51t17.5 -56t6.5 -58q0 -54 -20 -94.5t-58.5 -74t-93.5 -61.5q-56 -29 -128 -57z" />
<glyph unicode="&#x201c;" horiz-adv-x="966" d="M116 1044q0 54 20 96t58 75t94 61t126 55l32 -67q-60 -26 -101.5 -49t-67 -45t-36.5 -44t-11 -46q0 -20 4 -47t11 -57t16 -62t19 -60l-84 -16q-17 18 -31.5 41.5t-25 51t-17 56.5t-6.5 57zM500 1044q0 54 20 96t58 75t93 61t125 55l36 -67q-60 -26 -102 -49t-67.5 -45 t-37 -44t-11.5 -46q0 -20 4.5 -47t11.5 -57t16.5 -62t19.5 -60l-86 -16q-16 18 -31 41.5t-26 51t-17 56.5t-6 57z" />
<glyph unicode="&#x201d;" horiz-adv-x="964" d="M135 903q61 27 102.5 50t67 45t36.5 44t11 46q0 20 -4 47t-11 57t-16 62t-18 61l84 14q16 -17 30.5 -41t25.5 -51t17.5 -56t6.5 -57q0 -54 -20 -95t-58 -75t-93.5 -62t-125.5 -56zM518 903q61 27 102.5 50t67 45t36.5 44t11 46q0 20 -4.5 47t-11.5 57t-16 62t-19 61 l84 14q16 -17 30.5 -41t25.5 -51t17.5 -56t6.5 -57q0 -54 -20 -95t-58 -75t-93 -62t-126 -56z" />
<glyph unicode="&#x201e;" horiz-adv-x="940" d="M80 -254q60 26 102 49t67 45t36.5 44t11.5 46q0 20 -4.5 47t-11.5 57.5t-16 62t-19 61.5l86 14q16 -18 30.5 -42t25.5 -51t17.5 -56t6.5 -58q0 -54 -20 -94.5t-58.5 -74t-93.5 -61.5q-56 -29 -128 -57zM461 -254q60 26 102 49t68 45t37.5 44t11.5 46q0 20 -4 47t-11 57.5 t-17 62t-20 61.5l84 14q16 -18 31 -42t26 -51t17 -56t6 -58q0 -54 -20 -94.5t-58 -74t-93 -61.5q-55 -29 -125 -57z" />
<glyph unicode="&#x2022;" horiz-adv-x="680" d="M207 393v240h264v-240h-264z" />
<glyph unicode="&#x2026;" horiz-adv-x="1566" d="M178 0v140h162v-140h-162zM700 0v140h162v-140h-162zM1224 0v140h162v-140h-162z" />
<glyph unicode="&#x202f;" horiz-adv-x="308" />
<glyph unicode="&#x2039;" horiz-adv-x="733" d="M144 494l304 405l92 -29l-268 -364l230 -344l-96 -33z" />
<glyph unicode="&#x203a;" horiz-adv-x="733" d="M190 158l269 364l-229 340l96 37l264 -367l-308 -403z" />
<glyph unicode="&#x205f;" horiz-adv-x="385" />
<glyph unicode="&#x20ac;" d="M51 340l11 86h176q-2 17 -3 28.5t-1 20.5v16v17q0 32 2 60t6 52h-162l6 86h172q23 82 60 145t88.5 107t117.5 66t148 22q80 0 147.5 -14t118.5 -47l-28 -77q-59 26 -122.5 40t-121.5 14q-63 0 -113.5 -19t-87.5 -53t-63 -81t-40 -103h447l-6 -86h-457q-2 -16 -3 -28 t-2 -23.5t-1 -24.5v-30q0 -16 0.5 -39t3.5 -49h438l-6 -86h-422q23 -134 89.5 -199t182.5 -65q36 0 71.5 5t72 15t75.5 26t83 36l26 -78q-46 -27 -86.5 -45.5t-81 -29t-82.5 -15.5q-44 -4 -92 -4q-74 0 -136 20.5t-109 64t-79 110.5t-44 159h-193z" />
<glyph unicode="&#x2122;" horiz-adv-x="1560" d="M78 1302l4 72h496l-8 -72h-200v-526h-86v526h-206zM690 776l12 598h90l236 -479l236 479h84l6 -598h-82l-2 455l-222 -443h-65l-209 447l-8 -459h-76z" />
<glyph unicode="&#xe000;" horiz-adv-x="1030" d="M0 1030h1030v-1030h-1030v1030z" />
<glyph unicode="&#xfb01;" horiz-adv-x="1749" d="M223 0v1032h639l-8 -84h-526v-387h477l-9 -86h-468v-475h-105zM1114 0v72l192 8v872l-192 4v76h492v-74l-193 -6v-872l193 -4v-76h-492z" />
<glyph unicode="&#xfb02;" horiz-adv-x="1839" d="M223 0v1032h639l-8 -84h-526v-387h477l-9 -86h-468v-475h-105zM1194 0v1032h102v-950h484l10 -82h-596z" />
<glyph unicode="&#xfb03;" horiz-adv-x="2740" d="M2096 0v72l192 8v872l-192 4v76h491v-74l-193 -6v-872l193 -4v-76h-491zM1194 0v1032h639l-8 -84h-526v-387h477l-9 -86h-468v-475h-105zM223 0v1032h639l-8 -84h-526v-387h477l-9 -86h-468v-475h-105z" />
<glyph unicode="&#xfb04;" horiz-adv-x="2853" d="M2165 0v1032h103v-950h483l10 -82h-596zM1194 0v1032h639l-8 -84h-526v-387h477l-9 -86h-468v-475h-105zM223 0v1032h639l-8 -84h-526v-387h477l-9 -86h-468v-475h-105z" />
</font>
</defs>
</svg>
